<?xml version="1.0" standalone="no"?>
<!DOCTYPE svg PUBLIC "-//W3C//DTD SVG 1.1//EN" "http://www.w3.org/Graphics/SVG/1.1/DTD/svg11.dtd">
<svg width="100%" height="100%" viewBox="0 0 135 40" version="1.1" xmlns="http://www.w3.org/2000/svg" xmlns:xlink="http://www.w3.org/1999/xlink" xml:space="preserve" style="fill-rule:evenodd;clip-rule:evenodd;stroke-linejoin:round;stroke-miterlimit:1.41421;">
    <g>
        <path d="M130.197,40L4.729,40C2.122,40 0,37.872 0,35.267L0,4.726C0,2.12 2.122,0 4.729,0L130.197,0C132.803,0 135,2.12 135,4.726L135,35.267C135,37.872 132.803,40 130.197,40Z" style="fill:rgb(166,166,166);fill-rule:nonzero;"/>
        <path d="M134.032,35.268C134.032,37.384 132.318,39.098 130.198,39.098L4.729,39.098C2.61,39.098 0.89,37.384 0.89,35.268L0.89,4.725C0.89,2.61 2.61,0.89 4.729,0.89L130.197,0.89C132.318,0.89 134.031,2.61 134.031,4.725L134.032,35.268Z" style="fill:black;fill-rule:nonzero;"/>
        <g>
            <path d="M30.128,19.784C30.099,16.561 32.767,14.993 32.889,14.92C31.378,12.717 29.036,12.416 28.213,12.392C26.246,12.185 24.338,13.569 23.336,13.569C22.314,13.569 20.771,12.412 19.108,12.446C16.968,12.479 14.966,13.718 13.868,15.642C11.602,19.565 13.292,25.33 15.463,28.501C16.549,30.054 17.818,31.788 19.479,31.727C21.104,31.66 21.711,30.691 23.672,30.691C25.615,30.691 26.185,31.727 27.879,31.688C29.623,31.66 30.721,30.128 31.769,28.561C33.024,26.781 33.528,25.028 33.548,24.938C33.507,24.924 30.161,23.647 30.128,19.784Z" style="fill:white;fill-rule:nonzero;"/>
            <path d="M26.928,10.306C27.802,9.213 28.4,7.726 28.234,6.217C26.969,6.273 25.387,7.092 24.476,8.161C23.67,9.103 22.95,10.647 23.136,12.099C24.557,12.205 26.016,11.382 26.928,10.306Z" style="fill:white;fill-rule:nonzero;"/>
        </g>
        <g>
            <path d="M53.645,31.504L51.374,31.504L50.13,27.595L45.806,27.595L44.621,31.504L42.41,31.504L46.694,18.196L49.34,18.196L53.645,31.504ZM49.755,25.955L48.63,22.48C48.511,22.125 48.288,21.289 47.959,19.973L47.919,19.973C47.788,20.539 47.577,21.375 47.287,22.48L46.182,25.955L49.755,25.955Z" style="fill:white;fill-rule:nonzero;"/>
            <path d="M64.662,26.588C64.662,28.22 64.221,29.51 63.339,30.457C62.549,31.3 61.568,31.721 60.397,31.721C59.133,31.721 58.225,31.267 57.672,30.359L57.632,30.359L57.632,35.414L55.5,35.414L55.5,25.067C55.5,24.041 55.473,22.988 55.421,21.908L57.296,21.908L57.415,23.429L57.455,23.429C58.166,22.283 59.245,21.711 60.693,21.711C61.825,21.711 62.77,22.158 63.526,23.053C64.284,23.949 64.662,25.127 64.662,26.588ZM62.49,26.666C62.49,25.732 62.28,24.962 61.858,24.356C61.397,23.724 60.778,23.408 60.002,23.408C59.476,23.408 58.998,23.584 58.571,23.931C58.143,24.281 57.863,24.738 57.732,25.304C57.666,25.568 57.633,25.784 57.633,25.954L57.633,27.554C57.633,28.252 57.847,28.841 58.275,29.322C58.703,29.803 59.259,30.043 59.943,30.043C60.746,30.043 61.371,29.733 61.818,29.115C62.266,28.496 62.49,27.68 62.49,26.666Z" style="fill:white;fill-rule:nonzero;"/>
            <path d="M75.699,26.588C75.699,28.22 75.258,29.51 74.375,30.457C73.586,31.3 72.605,31.721 71.434,31.721C70.17,31.721 69.262,31.267 68.71,30.359L68.67,30.359L68.67,35.414L66.538,35.414L66.538,25.067C66.538,24.041 66.511,22.988 66.459,21.908L68.334,21.908L68.453,23.429L68.493,23.429C69.203,22.283 70.282,21.711 71.731,21.711C72.862,21.711 73.807,22.158 74.565,23.053C75.32,23.949 75.699,25.127 75.699,26.588ZM73.527,26.666C73.527,25.732 73.316,24.962 72.894,24.356C72.433,23.724 71.816,23.408 71.039,23.408C70.512,23.408 70.035,23.584 69.607,23.931C69.179,24.281 68.9,24.738 68.769,25.304C68.704,25.568 68.67,25.784 68.67,25.954L68.67,27.554C68.67,28.252 68.884,28.841 69.31,29.322C69.738,29.802 70.294,30.043 70.98,30.043C71.783,30.043 72.408,29.733 72.855,29.115C73.303,28.496 73.527,27.68 73.527,26.666Z" style="fill:white;fill-rule:nonzero;"/>
            <path d="M88.039,27.772C88.039,28.904 87.646,29.825 86.857,30.536C85.99,31.313 84.783,31.701 83.232,31.701C81.8,31.701 80.652,31.425 79.783,30.872L80.277,29.095C81.213,29.661 82.24,29.945 83.359,29.945C84.162,29.945 84.787,29.763 85.236,29.401C85.683,29.039 85.906,28.553 85.906,27.947C85.906,27.407 85.722,26.952 85.353,26.583C84.986,26.214 84.373,25.871 83.517,25.554C81.187,24.685 80.023,23.412 80.023,21.738C80.023,20.644 80.431,19.747 81.248,19.049C82.062,18.35 83.148,18.001 84.506,18.001C85.717,18.001 86.723,18.212 87.526,18.633L86.993,20.371C86.243,19.963 85.395,19.759 84.446,19.759C83.696,19.759 83.11,19.944 82.69,20.312C82.335,20.641 82.157,21.042 82.157,21.517C82.157,22.043 82.36,22.478 82.768,22.82C83.123,23.136 83.768,23.478 84.704,23.847C85.849,24.308 86.69,24.847 87.231,25.465C87.77,26.081 88.039,26.852 88.039,27.772Z" style="fill:white;fill-rule:nonzero;"/>
            <path d="M95.088,23.508L92.738,23.508L92.738,28.167C92.738,29.352 93.152,29.944 93.982,29.944C94.363,29.944 94.679,29.911 94.929,29.845L94.988,31.464C94.568,31.621 94.015,31.7 93.33,31.7C92.488,31.7 91.83,31.443 91.355,30.93C90.882,30.416 90.644,29.554 90.644,28.343L90.644,23.506L89.244,23.506L89.244,21.906L90.644,21.906L90.644,20.149L92.738,19.517L92.738,21.906L95.088,21.906L95.088,23.508Z" style="fill:white;fill-rule:nonzero;"/>
            <path d="M105.691,26.627C105.691,28.102 105.269,29.313 104.427,30.26C103.544,31.235 102.372,31.721 100.911,31.721C99.503,31.721 98.382,31.254 97.546,30.32C96.71,29.386 96.292,28.207 96.292,26.786C96.292,25.299 96.722,24.081 97.585,23.134C98.446,22.186 99.608,21.712 101.069,21.712C102.477,21.712 103.61,22.179 104.465,23.114C105.283,24.021 105.691,25.192 105.691,26.627ZM103.479,26.696C103.479,25.811 103.29,25.052 102.907,24.419C102.46,23.653 101.821,23.271 100.993,23.271C100.136,23.271 99.485,23.654 99.038,24.419C98.655,25.053 98.466,25.824 98.466,26.736C98.466,27.621 98.655,28.38 99.038,29.012C99.499,29.778 100.143,30.16 100.974,30.16C101.788,30.16 102.427,29.77 102.888,28.992C103.281,28.347 103.479,27.58 103.479,26.696Z" style="fill:white;fill-rule:nonzero;"/>
            <path d="M112.621,23.783C112.41,23.744 112.185,23.724 111.949,23.724C111.199,23.724 110.619,24.007 110.211,24.574C109.856,25.074 109.678,25.706 109.678,26.469L109.678,31.504L107.547,31.504L107.567,24.93C107.567,23.824 107.54,22.817 107.487,21.909L109.344,21.909L109.422,23.745L109.481,23.745C109.706,23.114 110.061,22.606 110.547,22.225C111.022,21.882 111.535,21.711 112.088,21.711C112.285,21.711 112.463,21.725 112.621,21.75L112.621,23.783Z" style="fill:white;fill-rule:nonzero;"/>
            <path d="M122.156,26.252C122.156,26.634 122.131,26.956 122.078,27.219L115.682,27.219C115.707,28.167 116.016,28.892 116.61,29.392C117.149,29.839 117.846,30.063 118.702,30.063C119.649,30.063 120.513,29.912 121.29,29.609L121.624,31.089C120.716,31.485 119.644,31.682 118.407,31.682C116.919,31.682 115.751,31.244 114.901,30.369C114.053,29.494 113.628,28.319 113.628,26.845C113.628,25.398 114.023,24.193 114.814,23.232C115.642,22.206 116.761,21.693 118.169,21.693C119.552,21.693 120.599,22.206 121.31,23.232C121.873,24.047 122.156,25.055 122.156,26.252ZM120.123,25.699C120.137,25.067 119.998,24.521 119.709,24.06C119.34,23.467 118.773,23.171 118.01,23.171C117.313,23.171 116.746,23.46 116.313,24.04C115.958,24.501 115.747,25.054 115.682,25.698L120.123,25.698L120.123,25.699Z" style="fill:white;fill-rule:nonzero;"/>
        </g>
        <g transform="matrix(0.613166,0,0,0.613166,34.3127,-4.58699)">
            <path d="M19.725,28.696C22.061,28.696 23.629,27.532 24.112,25.444L22.779,25.444C22.398,26.733 21.285,27.48 19.732,27.48C17.645,27.48 16.319,25.825 16.319,23.232C16.319,20.662 17.659,18.992 19.725,18.992C21.234,18.992 22.442,19.9 22.779,21.284L24.112,21.284C23.775,19.175 22.025,17.776 19.725,17.776C16.832,17.776 14.964,19.915 14.964,23.232C14.964,26.58 16.81,28.696 19.725,28.696Z" style="fill:white;fill-rule:nonzero;"/>
            <path d="M28.756,28.594C30.975,28.594 32.396,27.019 32.396,24.573C32.396,22.119 30.975,20.552 28.756,20.552C26.536,20.552 25.116,22.119 25.116,24.573C25.116,27.019 26.536,28.594 28.756,28.594ZM28.756,27.459C27.291,27.459 26.412,26.382 26.412,24.573C26.412,22.764 27.283,21.687 28.756,21.687C30.228,21.687 31.099,22.756 31.099,24.573C31.099,26.382 30.228,27.459 28.756,27.459Z" style="fill:white;fill-rule:nonzero;"/>
            <path d="M33.736,28.521L35.011,28.521L35.011,23.621C35.011,22.515 35.787,21.687 36.842,21.687C37.83,21.687 38.482,22.317 38.482,23.269L38.482,28.521L39.757,28.521L39.757,23.555C39.757,22.471 40.511,21.687 41.566,21.687C42.62,21.687 43.228,22.332 43.228,23.423L43.228,28.521L44.503,28.521L44.503,23.13C44.503,21.563 43.492,20.552 41.932,20.552C40.826,20.552 39.896,21.108 39.449,22.046L39.42,22.046C39.075,21.094 38.277,20.552 37.208,20.552C36.182,20.552 35.34,21.064 34.967,21.907L34.937,21.907L34.937,20.625L33.736,20.625L33.736,28.521Z" style="fill:white;fill-rule:nonzero;"/>
            <path d="M46.268,28.521L47.542,28.521L47.542,20.625L46.268,20.625L46.268,28.521ZM46.905,19.351C47.352,19.351 47.711,18.984 47.711,18.545C47.711,18.098 47.352,17.739 46.905,17.739C46.466,17.739 46.099,18.098 46.099,18.545C46.099,18.984 46.466,19.351 46.905,19.351Z" style="fill:white;fill-rule:nonzero;"/>
            <path d="M49.344,28.521L50.618,28.521L50.618,23.936C50.618,22.581 51.402,21.687 52.699,21.687C53.944,21.687 54.544,22.39 54.544,23.679L54.544,28.521L55.819,28.521L55.819,23.459C55.819,21.665 54.815,20.552 53.079,20.552C51.856,20.552 51.073,21.013 50.575,21.907L50.545,21.907L50.545,20.625L49.344,20.625L49.344,28.521Z" style="fill:white;fill-rule:nonzero;"/>
            <path d="M60.704,27.385C59.327,27.385 58.426,26.265 58.426,24.543C58.426,22.815 59.327,21.687 60.704,21.687C62.088,21.687 63.026,22.844 63.026,24.543C63.026,26.235 62.088,27.385 60.704,27.385ZM60.748,31.494C62.916,31.494 64.3,30.242 64.3,28.359L64.3,20.625L63.084,20.625L63.084,21.907L63.062,21.907C62.535,21.042 61.605,20.552 60.491,20.552C58.463,20.552 57.122,22.134 57.122,24.543C57.122,26.931 58.463,28.521 60.462,28.521C61.568,28.521 62.498,28.022 62.996,27.166L63.026,27.166L63.026,28.403C63.026,29.597 62.183,30.396 60.806,30.396C59.81,30.396 59.012,29.912 58.756,29.18L57.437,29.18C57.657,30.52 59.034,31.494 60.748,31.494Z" style="fill:white;fill-rule:nonzero;"/>
            <path d="M69.486,22.83C69.486,23.884 70.159,24.58 71.544,24.939L72.928,25.298C73.829,25.532 74.158,25.825 74.158,26.382C74.158,27.092 73.485,27.539 72.408,27.539C71.331,27.539 70.679,27.107 70.548,26.301L69.266,26.301C69.39,27.671 70.621,28.594 72.32,28.594C74.144,28.594 75.44,27.642 75.44,26.294C75.44,25.144 74.869,24.587 73.272,24.185L72.071,23.884C71.163,23.657 70.738,23.298 70.738,22.764C70.738,22.075 71.39,21.614 72.364,21.614C73.331,21.614 73.975,22.075 74.056,22.815L75.279,22.815C75.228,21.519 74.012,20.559 72.408,20.559C70.694,20.559 69.486,21.497 69.486,22.83Z" style="fill:white;fill-rule:nonzero;"/>
            <path d="M80.076,28.594C82.296,28.594 83.717,27.019 83.717,24.573C83.717,22.119 82.296,20.552 80.076,20.552C77.857,20.552 76.436,22.119 76.436,24.573C76.436,27.019 77.857,28.594 80.076,28.594ZM80.076,27.459C78.612,27.459 77.733,26.382 77.733,24.573C77.733,22.764 78.604,21.687 80.076,21.687C81.549,21.687 82.42,22.756 82.42,24.573C82.42,26.382 81.549,27.459 80.076,27.459Z" style="fill:white;fill-rule:nonzero;"/>
            <path d="M88.309,28.594C90.528,28.594 91.949,27.019 91.949,24.573C91.949,22.119 90.528,20.552 88.309,20.552C86.09,20.552 84.669,22.119 84.669,24.573C84.669,27.019 86.09,28.594 88.309,28.594ZM88.309,27.459C86.844,27.459 85.965,26.382 85.965,24.573C85.965,22.764 86.837,21.687 88.309,21.687C89.781,21.687 90.653,22.756 90.653,24.573C90.653,26.382 89.781,27.459 88.309,27.459Z" style="fill:white;fill-rule:nonzero;"/>
            <path d="M93.289,28.521L94.564,28.521L94.564,23.936C94.564,22.581 95.347,21.687 96.644,21.687C97.889,21.687 98.49,22.39 98.49,23.679L98.49,28.521L99.764,28.521L99.764,23.459C99.764,21.665 98.761,20.552 97.025,20.552C95.802,20.552 95.018,21.013 94.52,21.907L94.491,21.907L94.491,20.625L93.289,20.625L93.289,28.521Z" style="fill:white;fill-rule:nonzero;"/>
            <path d="M105.462,18.845L105.462,20.625L104.364,20.625L104.364,21.68L105.462,21.68L105.462,26.47C105.462,27.986 106.019,28.579 107.447,28.579C107.747,28.579 108.114,28.55 108.267,28.513L108.267,27.437C108.179,27.451 107.872,27.473 107.718,27.473C107.044,27.473 106.737,27.144 106.737,26.418L106.737,21.68L108.275,21.68L108.275,20.625L106.737,20.625L106.737,18.845L105.462,18.845Z" style="fill:white;fill-rule:nonzero;"/>
            <path d="M112.721,28.594C114.94,28.594 116.361,27.019 116.361,24.573C116.361,22.119 114.94,20.552 112.721,20.552C110.501,20.552 109.08,22.119 109.08,24.573C109.08,27.019 110.501,28.594 112.721,28.594ZM112.721,27.459C111.256,27.459 110.377,26.382 110.377,24.573C110.377,22.764 111.248,21.687 112.721,21.687C114.193,21.687 115.064,22.756 115.064,24.573C115.064,26.382 114.193,27.459 112.721,27.459Z" style="fill:white;fill-rule:nonzero;"/>
            <path d="M121.707,18.845L121.707,20.625L120.609,20.625L120.609,21.68L121.707,21.68L121.707,26.47C121.707,27.986 122.264,28.579 123.692,28.579C123.992,28.579 124.359,28.55 124.512,28.513L124.512,27.437C124.425,27.451 124.117,27.473 123.963,27.473C123.289,27.473 122.982,27.144 122.982,26.418L122.982,21.68L124.52,21.68L124.52,20.625L122.982,20.625L122.982,18.845L121.707,18.845Z" style="fill:white;fill-rule:nonzero;"/>
            <path d="M126.007,28.521L127.281,28.521L127.281,23.98C127.281,22.595 128.101,21.687 129.434,21.687C130.687,21.687 131.324,22.449 131.324,23.709L131.324,28.521L132.598,28.521L132.598,23.481C132.598,21.724 131.544,20.552 129.815,20.552C128.607,20.552 127.801,21.013 127.31,21.907L127.281,21.907L127.281,17.49L126.007,17.49L126.007,28.521Z" style="fill:white;fill-rule:nonzero;"/>
            <path d="M137.44,21.672C138.685,21.672 139.534,22.566 139.564,23.906L135.221,23.906C135.308,22.573 136.202,21.672 137.44,21.672ZM139.534,26.265C139.307,27.004 138.538,27.473 137.55,27.473C136.143,27.473 135.221,26.499 135.221,24.998L135.221,24.924L140.889,24.924L140.889,24.426C140.889,22.039 139.571,20.552 137.462,20.552C135.308,20.552 133.902,22.156 133.902,24.602C133.902,27.048 135.301,28.594 137.52,28.594C139.205,28.594 140.575,27.62 140.794,26.265L139.534,26.265Z" style="fill:white;fill-rule:nonzero;"/>
        </g>
    </g>
</svg>
