<?xml version="1.0" standalone="no"?>
<!DOCTYPE svg PUBLIC "-//W3C//DTD SVG 1.1//EN" "http://www.w3.org/Graphics/SVG/1.1/DTD/svg11.dtd">
<svg width="100%" height="100%" viewBox="0 0 1500 1114" version="1.1" xmlns="http://www.w3.org/2000/svg" xmlns:xlink="http://www.w3.org/1999/xlink" xml:space="preserve" style="fill-rule:evenodd;clip-rule:evenodd;stroke-linecap:round;stroke-linejoin:round;stroke-miterlimit:1.41421;">
    <g id="Layer1">
        <g transform="matrix(1.3923,0,0,1.3923,-319.555,-174.637)">
            <path d="M643.38,532.687C643.38,532.687 643.542,564.834 643.542,564.748C643.542,564.662 622.186,564.748 622.186,564.748L622.186,479.931L642.979,479.931L642.979,511.174L663.033,511.174L663.033,488.517L672.567,478.983L687.103,478.983L719.296,446.79L830.599,446.79L839.634,455.825L840.091,499.169L855.489,499.169L855.489,474.005L877.224,474.005L877.224,558.949L856.869,558.949L856.869,532.756L842.771,532.756L842.771,545.283L791.576,596.478L724.965,596.478L691.735,563.247L672.191,563.247L664.907,555.963L664.907,532.747L643.38,532.687Z" style="fill:none;stroke-width:6.46px;stroke:white;"/>
            <path d="M755.019,445.649L755.019,420.776L728.995,420.776L728.995,398.619L801.601,398.619L801.601,421.022L776.676,421.022L776.676,446.098L755.019,445.649Z" style="fill:none;stroke-width:6.46px;stroke:white;"/>
            <path d="M663.844,510.575L664.779,532.291" style="fill:none;stroke-width:6.46px;stroke:white;"/>
            <path d="M786.07,475.288L760.699,475.288L735.87,525.653L760.211,527.609L746.907,575.252L786.228,518.481L761.516,514.976L786.07,475.288Z" style="fill:rgb(255,229,47);"/>
        </g>
        <g transform="matrix(1.23336,0,0,1.23336,165.964,498.22)">
            <path d="M521.58,317.491C521.58,298.473 506.14,283.032 487.122,283.032L418.204,283.032C399.186,283.032 383.745,298.473 383.745,317.491L383.745,386.409C383.745,405.427 399.186,420.867 418.204,420.867L487.122,420.867C506.14,420.867 521.58,405.427 521.58,386.409L521.58,317.491Z" style="fill:rgb(142,122,184);"/>
            <clipPath id="_clip1">
                <path d="M521.58,317.491C521.58,298.473 506.14,283.032 487.122,283.032L418.204,283.032C399.186,283.032 383.745,298.473 383.745,317.491L383.745,386.409C383.745,405.427 399.186,420.867 418.204,420.867L487.122,420.867C506.14,420.867 521.58,405.427 521.58,386.409L521.58,317.491Z"/>
            </clipPath>
            <g clip-path="url(#_clip1)">
                <g transform="matrix(0.198626,0,0,0.198626,1445.62,33.602)">
                    <path d="M-4938.2,1434.2C-4845.6,1434.2 -4770.5,1510.1 -4770.5,1602.7C-4770.5,1695.3 -4845.6,1771.2 -4938.2,1771.2C-4966.4,1771.2 -5061.5,1771.2 -5087.4,1771.2C-5165,1771.2 -5227.9,1707.4 -5227.9,1629.8C-5227.9,1552.2 -5165,1488.8 -5087.4,1488.8C-5079.3,1488.8 -5071.3,1489.3 -5063.6,1490.7C-5032.9,1456.2 -4988.1,1434.2 -4938.2,1434.2M-4938.2,1426.8C-4963.7,1426.8 -4988.2,1432.1 -5011.2,1442.7C-5032.1,1452.3 -5050.7,1465.7 -5066.4,1482.6C-5073.4,1481.6 -5080.4,1481.1 -5087.4,1481.1C-5107.4,1481.1 -5126.7,1485 -5145,1492.8C-5162.6,1500.3 -5178.4,1510.9 -5192,1524.6C-5205.6,1538.2 -5216.2,1554 -5223.7,1571.7C-5231.4,1590 -5235.3,1609.3 -5235.3,1629.3C-5235.3,1649.3 -5231.4,1668.7 -5223.7,1686.9C-5216.2,1704.5 -5205.6,1720.4 -5192,1734C-5178.4,1747.6 -5162.6,1759 -5145,1766.4C-5126.8,1774.1 -5107.4,1778.7 -5087.4,1778.7L-4938.2,1778.7C-4914.6,1778.7 -4891.6,1773.4 -4870,1764.2C-4849.2,1755.4 -4830.4,1742.4 -4814.3,1726.3C-4798.2,1710.2 -4785.6,1691.3 -4776.8,1670.4C-4767.7,1648.8 -4763,1625.8 -4763,1602.1C-4763,1578.5 -4767.6,1555.5 -4776.8,1533.9C-4785.6,1513 -4798.2,1494.3 -4814.3,1478.2C-4830.4,1462.1 -4849.1,1449.4 -4870,1440.6C-4891.7,1431.5 -4914.6,1426.8 -4938.2,1426.8Z" style="fill:black;fill-rule:nonzero;"/>
                    <path d="M-5107,1633.9C-5111.9,1628.8 -5111.8,1620.7 -5106.8,1615.8C-5101.7,1610.9 -5093.6,1611 -5088.7,1616L-5020.7,1684.2C-4999.6,1705.3 -4970.5,1718.3 -4938.4,1718.3C-4874.1,1718.3 -4822,1666.2 -4822,1601.9C-4822,1537.6 -4874.1,1485.5 -4938.4,1485.5C-4965.8,1485.5 -4991,1495 -5010.9,1510.8C-5018.6,1505.8 -5026.8,1501.5 -5035.4,1498.1C-5010,1474.4 -4975.9,1459.8 -4938.4,1459.8C-4860,1459.8 -4796.4,1523.4 -4796.4,1601.8C-4796.4,1680.2 -4860,1743.8 -4938.4,1743.8C-4977.6,1743.8 -5013.1,1727.9 -5038.8,1702.2L-5107,1633.9Z" style="fill:black;fill-rule:nonzero;"/>
                    <path d="M-5028.9,1561.9C-5044.6,1548.3 -5065.1,1540 -5087.5,1540C-5136.8,1540 -5176.7,1579.8 -5176.7,1629.1C-5176.7,1678.4 -5136.8,1718.3 -5087.5,1718.3L-5059.1,1719C-5049.7,1728.8 -5039.1,1738 -5027.5,1745.4L-5087.5,1745.4C-5150.9,1745.4 -5202.4,1693.3 -5202.4,1629.9C-5202.4,1566.5 -5151,1514.7 -5087.6,1514.7C-5058,1514.7 -5031,1525.7 -5010.6,1544.1L-4958.9,1597.1C-4954,1602.2 -4954.1,1610.3 -4959.1,1615.2C-4964.2,1620.1 -4972.3,1620 -4977.2,1614.9L-5028.9,1561.9Z" style="fill:black;fill-rule:nonzero;"/>
                </g>
            </g>
        </g>
        <g transform="matrix(1.23336,0,2.46519e-32,1.23336,661.704,-154.611)">
            <path d="M521.58,317.491C521.58,298.473 506.14,283.032 487.122,283.032L418.204,283.032C399.186,283.032 383.745,298.473 383.745,317.491L383.745,386.409C383.745,405.427 399.186,420.867 418.204,420.867L487.122,420.867C506.14,420.867 521.58,405.427 521.58,386.409L521.58,317.491Z" style="fill:rgb(227,116,0);"/>
            <clipPath id="_clip2">
                <path d="M521.58,317.491C521.58,298.473 506.14,283.032 487.122,283.032L418.204,283.032C399.186,283.032 383.745,298.473 383.745,317.491L383.745,386.409C383.745,405.427 399.186,420.867 418.204,420.867L487.122,420.867C506.14,420.867 521.58,405.427 521.58,386.409L521.58,317.491Z"/>
            </clipPath>
            <g clip-path="url(#_clip2)">
                <g transform="matrix(1.02978,0,0,1.02978,206.528,96.3185)">
                    <path d="M195.526,281.743L205.718,281.933L206.803,242.515L238.18,280.94L239.496,250.561L269.389,282.902L282.506,282.902L228.434,223.855L228.137,252.271L195.755,213.574L195.526,281.743Z" style="fill:black;"/>
                </g>
            </g>
        </g>
        <g transform="matrix(1.23336,0,0,1.23336,165.964,-349.08)">
            <path d="M521.58,317.491C521.58,298.473 506.14,283.032 487.122,283.032L418.204,283.032C399.186,283.032 383.745,298.473 383.745,317.491L383.745,386.409C383.745,405.427 399.186,420.867 418.204,420.867L487.122,420.867C506.14,420.867 521.58,405.427 521.58,386.409L521.58,317.491Z" style="fill:rgb(240,206,0);"/>
            <clipPath id="_clip3">
                <path d="M521.58,317.491C521.58,298.473 506.14,283.032 487.122,283.032L418.204,283.032C399.186,283.032 383.745,298.473 383.745,317.491L383.745,386.409C383.745,405.427 399.186,420.867 418.204,420.867L487.122,420.867C506.14,420.867 521.58,405.427 521.58,386.409L521.58,317.491Z"/>
            </clipPath>
            <g clip-path="url(#_clip3)">
                <g transform="matrix(1.02978,0,0,1.02978,-356.598,115.225)">
                    <text x="734.581px" y="253.221px" style="font-family:Helvetica Neue;font-size:62.912px;fill:black;">x64</text>
                </g>
            </g>
        </g>
        <g transform="matrix(1.23336,0,0,1.23336,-287.036,299.32)">
            <path d="M521.58,317.491C521.58,298.473 506.14,283.032 487.122,283.032L418.204,283.032C399.186,283.032 383.745,298.473 383.745,317.491L383.745,386.409C383.745,405.427 399.186,420.867 418.204,420.867L487.122,420.867C506.14,420.867 521.58,405.427 521.58,386.409L521.58,317.491Z" style="fill:rgb(0,178,250);"/>
            <clipPath id="_clip4">
                <path d="M521.58,317.491C521.58,298.473 506.14,283.032 487.122,283.032L418.204,283.032C399.186,283.032 383.745,298.473 383.745,317.491L383.745,386.409C383.745,405.427 399.186,420.867 418.204,420.867L487.122,420.867C506.14,420.867 521.58,405.427 521.58,386.409L521.58,317.491Z"/>
            </clipPath>
            <g clip-path="url(#_clip4)">
                <g transform="matrix(1.79435,0,0,1.79435,407.804,307.091)">
                    <path d="M0,4L0,46L50,46L50,45L50,5L50,4L49,4L1,4L0,4ZM2,6L48,6L48,44L2,44L2,6ZM4,8L4,30.781C3.973,30.915 3.973,31.053 4,31.188L4,42L46,42L46,41L46,37.156C46.027,37.022 46.027,36.884 46,36.75L46,9L46,8L45,8L5,8L4,8ZM6,10L44,10L44,34.563L34.719,25.281C34.497,25.061 34.185,24.957 33.875,25C33.651,25.024 33.442,25.123 33.281,25.281L29.031,29.531L18.75,18.313C18.521,18.061 18.179,17.943 17.844,18C17.646,18.028 17.461,18.115 17.313,18.25L6,28.688L6,10ZM35,15C33.343,15 32,16.343 32,18C32,19.657 33.343,21 35,21C36.657,21 38,19.657 38,18C38,16.343 36.657,15 35,15ZM17.938,20.438L27.594,30.969L25.281,33.281C25.091,33.472 24.983,33.731 24.983,34C24.983,34.558 25.442,35.017 26,35.017C26.269,35.017 26.528,34.909 26.719,34.719L29.563,31.844C29.703,31.759 29.821,31.641 29.906,31.5L34,27.438L44,37.438L44,40L6,40L6,31.469L17.938,20.438Z" style="fill:black;fill-rule:nonzero;"/>
                </g>
            </g>
        </g>
        <g transform="matrix(1.23336,0,2.46519e-32,1.23336,662.056,299.32)">
            <path d="M521.58,317.491C521.58,298.473 506.14,283.032 487.122,283.032L418.204,283.032C399.186,283.032 383.745,298.473 383.745,317.491L383.745,386.409C383.745,405.427 399.186,420.867 418.204,420.867L487.122,420.867C506.14,420.867 521.58,405.427 521.58,386.409L521.58,317.491Z" style="fill:rgb(199,0,73);"/>
            <clipPath id="_clip5">
                <path d="M521.58,317.491C521.58,298.473 506.14,283.032 487.122,283.032L418.204,283.032C399.186,283.032 383.745,298.473 383.745,317.491L383.745,386.409C383.745,405.427 399.186,420.867 418.204,420.867L487.122,420.867C506.14,420.867 521.58,405.427 521.58,386.409L521.58,317.491Z"/>
            </clipPath>
            <g clip-path="url(#_clip5)">
                <g transform="matrix(0.897177,0,0,0.897177,-676.57,-79.3176)">
                    <g transform="matrix(1.28703,0,0,1.08876,-350.347,-44.0435)">
                        <rect x="1219.04" y="479.615" width="6.193" height="7.309" style="fill:black;"/>
                    </g>
                    <g transform="matrix(1.28703,0,0,1.08876,-338.493,-44.0435)">
                        <rect x="1219.04" y="479.615" width="6.193" height="7.309" style="fill:black;"/>
                    </g>
                    <g transform="matrix(1.28703,0,0,1.08876,-326.033,-44.0435)">
                        <rect x="1219.04" y="479.615" width="6.193" height="7.309" style="fill:black;"/>
                    </g>
                    <g transform="matrix(1.28703,0,0,1.08876,-314.273,-44.0435)">
                        <rect x="1219.04" y="479.615" width="6.193" height="7.309" style="fill:black;"/>
                    </g>
                    <g transform="matrix(1.28703,0,0,1.08876,-302.011,-44.0435)">
                        <rect x="1219.04" y="479.615" width="6.193" height="7.309" style="fill:black;"/>
                    </g>
                    <g transform="matrix(1.28703,0,0,1.08876,-278.141,-44.0435)">
                        <rect x="1219.04" y="479.615" width="6.193" height="7.309" style="fill:black;"/>
                    </g>
                    <g transform="matrix(1.28703,0,0,1.08876,-296.01,-32.0806)">
                        <rect x="1219.04" y="479.615" width="6.193" height="7.309" style="fill:black;"/>
                    </g>
                    <g transform="matrix(1.28703,0,0,1.08876,-308.314,-32.0806)">
                        <rect x="1219.04" y="479.615" width="6.193" height="7.309" style="fill:black;"/>
                    </g>
                    <g transform="matrix(1.28703,0,0,1.08876,-320.14,-32.0806)">
                        <rect x="1219.04" y="479.615" width="6.193" height="7.309" style="fill:black;"/>
                    </g>
                    <g transform="matrix(1.28703,0,0,1.08876,-332.319,-32.0806)">
                        <rect x="1219.04" y="479.615" width="6.193" height="7.309" style="fill:black;"/>
                    </g>
                    <g transform="matrix(1.28703,0,0,1.08876,-350.214,-19.8287)">
                        <rect x="1219.04" y="479.615" width="6.193" height="7.309" style="fill:black;"/>
                    </g>
                    <g transform="matrix(1.28703,0,0,1.08876,-337.996,-20.1048)">
                        <rect x="1219.04" y="479.615" width="6.193" height="7.309" style="fill:black;"/>
                    </g>
                    <g transform="matrix(2.22782,0,0,1.08876,-1497.08,-32.1171)">
                        <rect x="1219.04" y="479.615" width="6.193" height="7.309" style="fill:black;"/>
                    </g>
                    <g transform="matrix(2.22782,0,0,1.08876,-1431.24,-31.9931)">
                        <rect x="1219.04" y="479.615" width="6.193" height="7.309" style="fill:black;"/>
                    </g>
                    <g transform="matrix(1.28703,0,0,1.08876,-290.348,-19.8287)">
                        <rect x="1219.04" y="479.615" width="6.193" height="7.309" style="fill:black;"/>
                    </g>
                    <g transform="matrix(1.28703,0,0,1.08876,-278.187,-19.8287)">
                        <rect x="1219.04" y="479.615" width="6.193" height="7.309" style="fill:black;"/>
                    </g>
                    <g transform="matrix(1.28703,0,0,1.08876,-290.205,-44.0435)">
                        <rect x="1219.04" y="479.615" width="6.193" height="7.309" style="fill:black;"/>
                    </g>
                    <g transform="matrix(5.0658,0,0,1.08876,-4932.51,-19.8287)">
                        <rect x="1219.04" y="479.615" width="6.193" height="7.309" style="fill:black;"/>
                    </g>
                    <path d="M1308.65,476.92C1308.65,471.489 1304.24,467.079 1298.81,467.079L1218.49,467.079C1213.06,467.079 1208.65,471.489 1208.65,476.92L1208.65,511.793C1208.65,517.225 1213.06,521.634 1218.49,521.634L1298.81,521.634C1304.24,521.634 1308.65,517.225 1308.65,511.793L1308.65,476.92Z" style="fill:none;stroke-width:4.07px;stroke:black;"/>
                    <path d="M1258.65,466.457C1260.75,462.733 1261.72,457.713 1264.96,455.285C1268.19,452.858 1274.81,454.482 1278.08,451.894C1281.34,449.305 1282.4,443.801 1284.56,439.754" style="fill:black;stroke-width:4.97px;stroke:black;"/>
                </g>
            </g>
        </g>
        <g transform="matrix(1.23779,0,0,1.23779,-288.997,-170.535)">
            <path d="M521.58,317.491C521.58,298.473 506.14,283.032 487.122,283.032L418.204,283.032C399.186,283.032 383.745,298.473 383.745,317.491L383.745,386.409C383.745,405.427 399.186,420.867 418.204,420.867L487.122,420.867C506.14,420.867 521.58,405.427 521.58,386.409L521.58,317.491Z" style="fill:rgb(0,207,52);"/>
            <clipPath id="_clip6">
                <path d="M521.58,317.491C521.58,298.473 506.14,283.032 487.122,283.032L418.204,283.032C399.186,283.032 383.745,298.473 383.745,317.491L383.745,386.409C383.745,405.427 399.186,420.867 418.204,420.867L487.122,420.867C506.14,420.867 521.58,405.427 521.58,386.409L521.58,317.491Z"/>
            </clipPath>
            <g clip-path="url(#_clip6)">
                <g transform="matrix(0.743431,0,0,0.743431,378.32,277.607)">
                    <path d="M150.292,142.95L158.952,147.95L170.952,127.166L162.292,122.166L150.292,142.951L150.292,142.95ZM37.708,122.167L29.048,127.167L41.048,147.952L49.708,142.952L37.708,122.168L37.708,122.167ZM141.63,137.95L153.63,117.166L144.97,112.166L132.97,132.951L141.63,137.951L141.63,137.95ZM58.37,137.95L67.03,132.95L55.03,112.166L46.37,117.166L58.37,137.951L58.37,137.95ZM76.95,130.687L39.95,152.049L24.95,126.067L70,100.058L24.95,74.05L39.95,48.07L76.95,69.432C76.94,70.582 76.93,71.732 76.922,72.88L75.689,72.168L63.689,92.953L72.349,97.953L76.833,90.187C76.815,96.77 76.815,103.354 76.833,109.937L72.348,102.169L63.688,107.169L75.688,127.954L76.921,127.244L76.939,129.482L76.949,130.692L76.95,130.687ZM55.03,87.95L67.03,67.166L58.37,62.166L46.37,82.951L55.03,87.951L55.03,87.95ZM144.97,87.95L153.63,82.95L141.63,62.166L132.97,67.166L144.97,87.951L144.97,87.95ZM150.292,57.166L162.292,77.951L170.952,72.951L158.952,52.167L150.292,57.167L150.292,57.166ZM37.708,77.95L49.708,57.166L41.048,52.166L29.048,72.951L37.708,77.951L37.708,77.95ZM123.054,69.428L160.05,48.068L175.05,74.048L130,100.06L175.05,126.07L160.05,152.05L123.053,130.69L123.063,129.48L123.083,127.243L124.311,127.953L136.311,107.169L127.651,102.169L123.175,109.923C123.195,103.349 123.195,96.775 123.175,90.201L127.652,97.954L136.312,92.954L124.312,72.17L123.084,72.88L123.056,69.432L123.054,69.428ZM120,64C120,53.79 111.04,45 100,45C88.963,45 80,53.79 80,64L80,136C80,146.21 88.963,155 100,155C111.04,155 120,146.21 120,136L120,64ZM100,122C108.354,122 115,128.273 115,136C115,143.727 108.354,150 100,150C91.648,150 85,143.727 85,136C85,128.273 91.648,122 100,122ZM100,86C108.354,86 115,92.273 115,100C115,107.727 108.354,114 100,114C91.648,114 85,107.727 85,100C85,92.273 91.648,86 100,86ZM100,50C108.354,50 115,56.273 115,64C115,71.727 108.354,78 100,78C91.648,78 85,71.727 85,64C85,56.273 91.648,50 100,50Z" style="fill:black;"/>
                    <path d="M100.973,63.746L108.583,63.746L108.583,64.302C108.583,65.569 108.353,66.448 108.026,67.424C107.708,68.326 107.172,69.17 106.416,69.956C104.706,71.718 102.531,72.598 99.891,72.598C97.316,72.598 95.109,71.748 93.271,70.044C91.435,68.334 90.517,66.281 90.517,63.887C90.517,61.441 91.451,59.367 93.32,57.664C95.188,55.954 97.462,55.098 100.142,55.098C101.582,55.098 102.922,55.38 104.174,55.906C106.931,57.066 107.731,58.593 108.516,59.959L105.816,59.959C104.129,57.844 102.36,57.499 100.189,57.499C98.239,57.499 96.606,58.114 95.286,59.344C93.966,60.552 93.306,62.066 93.306,63.886C93.306,65.763 94.041,67.31 95.513,68.526C96.888,69.653 98.379,70.216 99.986,70.216C101.354,70.216 102.582,69.796 103.672,68.951C104.762,68.101 105.438,67.321 105.565,66.135L100.972,66.135L100.972,63.745L100.973,63.746Z" style="fill:black;fill-rule:nonzero;"/>
                    <path d="M108.384,96.406C107.391,96.41 104.874,96.406 104.874,96.406C104.874,96.406 104.542,95.55 104.31,95.156C104.05,94.716 103.715,94.336 103.306,94.013C102.898,93.693 102.419,93.443 101.871,93.263C101.324,93.086 100.688,92.997 99.964,92.997C98.904,92.997 97.99,93.192 97.219,93.581C96.449,93.971 95.821,94.493 95.339,95.145C94.855,95.797 94.499,96.537 94.266,97.367C94.033,98.197 93.916,99.044 93.916,99.907C93.916,100.771 94.033,101.617 94.266,102.447C94.498,103.277 94.856,104.017 95.338,104.67C95.821,105.32 96.448,105.842 97.218,106.23C97.99,106.62 98.905,106.815 99.964,106.815C100.744,106.815 101.431,106.693 102.026,106.447C102.62,106.202 103.131,105.863 103.558,105.431C103.985,105.001 104.32,104.496 104.561,103.921C104.629,103.759 104.745,103.425 104.745,103.425L108.233,103.435C108.233,103.435 107.913,104.533 107.668,105.038C107.232,105.936 106.642,106.711 105.898,107.363C105.156,108.015 104.283,108.518 103.28,108.873C102.275,109.23 101.17,109.407 99.963,109.407C98.477,109.407 97.143,109.157 95.963,108.657C94.785,108.157 93.786,107.477 92.969,106.613C92.151,105.75 91.524,104.743 91.087,103.59C90.651,102.438 90.432,101.21 90.432,99.906C90.432,98.619 90.652,97.4 91.087,96.249C91.524,95.096 92.151,94.089 92.967,93.225C93.785,92.361 94.784,91.675 95.963,91.167C97.143,90.659 98.476,90.405 99.963,90.405C101.076,90.405 102.126,90.545 103.11,90.825C104.096,91.105 104.964,91.51 105.717,92.045C106.469,92.577 107.077,93.225 107.542,93.987C107.979,94.704 108.259,95.494 108.384,96.405L108.384,96.406ZM93.767,127.676L101.034,127.676C102.376,127.676 103.538,127.904 104.52,128.362C105.502,128.819 106.304,129.444 106.926,130.237C107.548,131.029 108.01,131.957 108.313,133.019C108.616,134.079 108.767,135.216 108.767,136.425C108.767,137.635 108.617,138.769 108.313,139.832C108.01,140.894 107.548,141.822 106.926,142.612C106.304,143.406 105.502,144.032 104.52,144.488C103.538,144.945 102.376,145.174 101.034,145.174L93.767,145.174L93.767,127.674L93.767,127.676ZM96.837,142.676L99.857,142.676C101.05,142.676 102.027,142.516 102.789,142.198C103.549,141.878 104.147,141.438 104.579,140.874C105.014,140.31 105.309,139.649 105.464,138.889C105.62,138.129 105.697,137.307 105.697,136.425C105.697,135.542 105.62,134.721 105.464,133.961C105.309,133.201 105.014,132.541 104.58,131.976C104.148,131.412 103.55,130.971 102.79,130.653C102.028,130.333 101.05,130.175 99.856,130.175L96.836,130.175L96.836,142.675L96.837,142.676Z" style="fill:black;fill-rule:nonzero;"/>
                </g>
            </g>
        </g>
        <g transform="matrix(1.03744,0,0,1.03744,-167.914,-24.9688)">
            <text x="326.184px" y="445.907px" style="font-family:Helvetica Neue;font-size:88.917px;font-weight:200;fill:white;">GCD</text>
        </g>
        <g transform="matrix(1.03744,0,0,1.03744,-218.096,440.186)">
            <text x="326.184px" y="445.907px" style="font-family:Helvetica Neue;font-size:88.917px;font-weight:200;fill:white;">DCI-P3</text>
        </g>
        <g transform="matrix(1.03744,0,0,1.03744,682.504,438.618)">
            <text x="326.184px" y="445.907px" style="font-family:Helvetica Neue;font-size:88.917px;font-weight:200;fill:white;">Shor<tspan x="503.128px 526.158px " y="445.907px 445.907px ">tc</tspan>uts</text>
        </g>
        <g transform="matrix(1.03744,0,0,1.03744,80.0701,632.86)">
            <text x="326.184px" y="445.907px" style="font-family:Helvetica Neue;font-size:88.917px;font-weight:300;fill:white;">Cr<tspan x="415.19px 461.337px " y="445.907px 445.907px ">ea</tspan>tive Cloud</text>
        </g>
        <g transform="matrix(1.03744,0,0,1.03744,265.391,-196.21)">
            <text x="326.184px" y="445.907px" style="font-family:Helvetica Neue;font-size:88.917px;font-weight:200;fill:white;">64 Bit</text>
        </g>
        <g transform="matrix(1.03744,0,0,1.03744,767.128,-27.2689)">
            <text x="326.184px" y="445.907px" style="font-family:Helvetica Neue;font-size:88.917px;font-weight:200;fill:white;">Metal</text>
        </g>
    </g>
</svg>
