<?xml version="1.0" standalone="no"?>
<!DOCTYPE svg PUBLIC "-//W3C//DTD SVG 1.1//EN" "http://www.w3.org/Graphics/SVG/1.1/DTD/svg11.dtd">
<svg width="100%" height="100%" viewBox="0 0 102 102" version="1.1" xmlns="http://www.w3.org/2000/svg" xmlns:xlink="http://www.w3.org/1999/xlink" xml:space="preserve" style="fill-rule:evenodd;clip-rule:evenodd;stroke-linejoin:round;stroke-miterlimit:1.41421;">
    <g id="Rocket" transform="matrix(0.255283,2.8342e-17,-2.8342e-17,0.255283,-88.8957,-71.7781)">
        <path d="M704.815,430.883L705.215,478.666L550.57,482.888C540.124,483.04 532.075,479.142 526.676,471.593C524.728,468.869 523.057,465.553 522.105,461.042C522.032,460.698 522.038,460.337 522.011,459.974C521.817,449.218 525.39,440.544 533.571,435.528C537.089,433.371 542.515,430.874 546.486,430.883L704.815,430.883Z" style="fill:none;stroke-width:7.45px;stroke:white;"/>
        <path d="M507.482,614.62C482.432,620.166 461.377,634.635 445.147,662.451C436.804,613.528 447.307,571.888 486.085,542.275L391.404,540.202L390.656,397.242L705.118,396.115L704.82,323.689L547.551,322.792C518.377,359.301 491.054,404.524 484.7,471.505C484.353,491.05 483.77,508.782 485.305,530.154C485.419,559.909 497.5,587.548 507.482,614.62Z" style="fill:none;stroke-width:7.45px;stroke:white;"/>
        <path d="M506.886,614.004L512.474,614.566L496.856,649.924L541.585,649.99L545.665,662.063L546.106,664.013L551.059,650.622L595.363,650.059L578.696,614.193L586.079,613.877C593.734,591.441 601.674,569.32 605.999,543.201C609.625,522.848 609.993,501.478 608.084,479.399C602.707,420.791 581.639,369.107 547.098,323.369L546.08,297.904" style="fill:none;stroke-width:7.45px;stroke:white;"/>
        <path d="M592.714,592.769L554.393,591.791C554.002,574.09 552.233,557.084 546.374,543.611C537.617,554.842 536.923,590.92 537.216,592.732L499.364,592.004" style="fill:none;stroke-width:7.45px;stroke:white;"/>
        <path d="M512.266,614.482L537.562,613.736C537.36,625.593 538.037,637.527 541.187,649.605L546.192,654.809L551.285,646.856C553.297,636.21 553.457,625.328 554.147,614.356L578.447,613.907" style="fill:none;stroke-width:7.45px;stroke:white;"/>
        <path d="M537.195,592.068L537.214,614.279" style="fill:none;stroke-width:7.45px;stroke:white;"/>
        <path d="M554.397,591.582L554.253,615.342" style="fill:none;stroke-width:7.45px;stroke:white;"/>
        <path d="M606.21,542.176C651.288,579.857 652.564,619.527 645.731,659.565C630.934,637.989 612.487,620.711 585.671,613.292" style="fill:none;stroke-width:7.45px;stroke:white;"/>
        <path d="M606.148,541.128L705.014,541.751L705.619,662.724L646.288,662.953L645.288,658.533" style="fill:none;stroke-width:7.45px;stroke:white;"/>
        <path d="M705.147,602.778L738.65,583.294L738.467,620.313L705.147,602.778Z" style="fill:none;stroke-width:7.45px;stroke:white;"/>
        <path d="M739.242,436.094L707.165,455.605L739.27,475.405L739.242,436.094Z" style="fill:none;stroke-width:7.45px;stroke:white;"/>
        <path d="M705.387,359.19L739.715,341.204L739.365,379.689L705.387,359.19Z" style="fill:none;stroke-width:7.45px;stroke:white;"/>
        <path d="M356.313,450.028L356.684,487.491L388.166,469.695L356.313,450.028Z" style="fill:none;stroke-width:7.45px;stroke:white;"/>
        <g transform="matrix(0.572774,-6.35904e-17,6.35904e-17,0.572774,259.636,189.627)">
            <circle cx="503.473" cy="466.603" r="45.397" style="fill:none;stroke-width:13px;stroke:white;"/>
        </g>
    </g>
</svg>
