<?xml version="1.0" standalone="no"?>
<!DOCTYPE svg PUBLIC "-//W3C//DTD SVG 1.1//EN" "http://www.w3.org/Graphics/SVG/1.1/DTD/svg11.dtd">
<svg width="100%" height="100%" viewBox="0 0 699 933" version="1.1" xmlns="http://www.w3.org/2000/svg" xmlns:xlink="http://www.w3.org/1999/xlink" xml:space="preserve" style="fill-rule:evenodd;clip-rule:evenodd;stroke-linejoin:round;stroke-miterlimit:1.41421;">
    <g id="Rainbow Rocket logo webpage" transform="matrix(0.921135,0,0,0.921135,-1.54797,29.9441)">
        <g transform="matrix(9.34696,-3.55271e-15,2.66454e-15,9.42278,31.3074,-16.3294)">
            <path d="M42.751,81.592L58.214,81.592L61.541,88.468L40.025,88.511L42.751,81.592Z" style="fill:none;stroke-width:2.62px;stroke:white;"/>
        </g>
        <g transform="matrix(0.830737,-2.22045e-16,1.66533e-16,0.830737,110.061,46.8528)">
            <path d="M620.685,687.204C616.505,725.98 605.13,774.168 575.561,846.155C640.742,868.231 677.457,911.352 712.244,955.899C723.425,865.433 719.764,775.288 620.685,687.204Z" style="fill:none;stroke-width:29.62px;stroke:white;"/>
        </g>
        <g transform="matrix(-0.830737,2.22045e-16,1.66533e-16,0.830737,897.552,48.0584)">
            <path d="M620.685,687.204C616.505,725.98 605.13,774.168 575.561,846.155C640.742,868.231 677.457,911.352 712.244,955.899C723.425,865.433 719.764,775.288 620.685,687.204Z" style="fill:none;stroke-width:29.62px;stroke:white;"/>
        </g>
        <g transform="matrix(0.830737,-2.22045e-16,3.33067e-16,1.48178,105.009,-29.2788)">
            <path d="M477.252,118.79L477.252,79.202" style="fill:none;stroke-width:20.49px;stroke:white;"/>
        </g>
        <g transform="matrix(0.47325,0,0,1.20563,320.077,-143.644)">
            <path d="M586.314,712.248L184.084,712.248" style="fill:none;stroke-width:26.87px;stroke:white;"/>
        </g>
        <g transform="matrix(0.830737,-2.22045e-16,1.66533e-16,0.830737,78.4152,69.113)">
            <path d="M419.111,822.62C376.148,717.642 360.479,644.771 358.237,540.723C354.76,379.435 403.993,218.351 502.524,93.446L516.176,93.446C604.357,220.901 660.479,375.943 660.463,540.723C660.453,638.644 644.437,717.15 599.588,822.62L419.111,822.62Z" style="fill:none;stroke-width:29.62px;stroke:white;"/>
        </g>
        <g transform="matrix(1.71033,-4.44089e-16,1.66533e-16,0.859332,-393.987,163.139)">
            <ellipse cx="523.563" cy="661.17" rx="11.563" ry="149.17" style="fill:black;stroke-width:18.18px;stroke:white;"/>
        </g>
        <g transform="matrix(1.27124,-4.44089e-16,3.33067e-16,1.27124,-146.724,-199.568)">
            <circle cx="511.686" cy="470.303" r="40.368" style="fill:none;stroke-width:19.36px;stroke:white;"/>
        </g>
    </g>
</svg>
