<?xml version="1.0" standalone="no"?>
<!DOCTYPE svg PUBLIC "-//W3C//DTD SVG 1.1//EN" "http://www.w3.org/Graphics/SVG/1.1/DTD/svg11.dtd">
<svg width="100%" height="100%" viewBox="0 0 1024 1024" version="1.1" xmlns="http://www.w3.org/2000/svg" xmlns:xlink="http://www.w3.org/1999/xlink" xml:space="preserve" style="fill-rule:evenodd;clip-rule:evenodd;stroke-linecap:round;stroke-linejoin:round;stroke-miterlimit:1.41421;">
    <g transform="matrix(1.54089,5.89939e-18,5.99307e-18,1.54089,178.998,384.264)">
        <path d="M548.387,-82.974C548.387,-174.669 473.943,-249.112 382.249,-249.112L49.973,-249.112C-41.721,-249.112 -116.165,-174.669 -116.165,-82.974L-116.165,249.302C-116.165,340.996 -41.721,415.44 49.973,415.44L382.249,415.44C473.943,415.44 548.387,340.996 548.387,249.302L548.387,-82.974Z" style="fill:rgb(252,193,101);"/>
    </g>
    <g transform="matrix(1.13372,0,0,1.1793,-50.2693,-77.7692)">
        <path d="M133.973,382.163L166.345,381.157C171.116,379.383 174.838,376.144 178.249,372.47C182.691,369.133 189.713,366.867 201.109,366.418L221.32,363.618L240.524,349.044C237.361,346.307 231.468,343.299 224.435,340.177C218.534,342.886 212.63,344.334 206.723,344.982C201.15,345.185 195.572,344.797 189.98,342.417C177.854,336.436 165.798,330.342 152.724,325.896L137.539,327.053C128.277,325.896 122.621,323.198 117.976,320.068L97.584,304.861L134.336,322.512L142.423,322.373L150.004,321.206C154.636,321.074 159.165,321.92 163.6,323.659L192.867,336.498C196.895,337.789 202.066,338.181 208.379,337.674L228.444,330.753C232.056,328.906 233.277,326.257 233.84,323.389L180.311,314.393L128.834,294.338L180.483,309.207L214.859,312.509C210.953,309.355 207.604,305.583 204.868,301.133C201.028,296.162 196.228,292.684 190.892,290.038C179.386,285.104 168.878,283.163 158.313,281.047L184.982,282.771C192.117,285.087 199.25,287.518 206.364,293.488L215.44,304.339C222.395,309.247 229.941,312.254 237.493,315.245L251.297,316.347C254.047,313.281 255.641,308.903 254.809,301.772C251.887,296.005 248.13,290.413 244.105,284.877L215.266,274.693C204.938,269.319 194.273,265.158 183.461,261.526L160.721,245.234L184.949,257.957L236.41,274.854L230.437,261.9C225.774,255.956 220.046,251.364 213.936,247.259L207.585,241.757L185.568,206.76L211.458,238.862L228.055,250.251C228.062,246.283 227.29,242.027 225.578,237.422L219.973,228.253L207.903,214.32L222.659,223.616C226.751,227.154 230.129,231.417 231.519,237.698L236.825,260.754C239.523,268.646 244.862,275.975 255.739,282.126C263.998,283.28 272.234,282.707 280.416,278.004L253.711,241.431L238.398,217.196L222.037,203.017L207.457,193.447L187.611,182.509L210.473,191.238C219.35,196.241 227.889,200.537 239.56,211.377L251.021,226.324C260.793,241.105 271.95,255.739 283.997,270.278L286.472,263.046C287.271,259.542 287.475,255.612 286.547,250.871C284.448,240.724 279.813,231.785 273.968,223.421C270.093,218.242 266.142,214.072 262.132,210.682L249.905,199.277C243.586,191.965 238.954,184.248 235.625,176.218L225.59,152.921C236.188,173.379 247.009,193.431 262.739,204.487L260.135,191.025C260.015,186.429 260.83,181.878 262.035,177.347L265.001,166.089L265.437,143.255L268.907,158.023L266.221,177.263C264.405,183.582 264.197,189.662 265.228,195.558L268.951,203.626L286.76,231.146C290.927,237.901 294.446,245.001 296.543,252.862C297.449,258.218 297.393,263.568 296.178,268.91C300.74,272.957 305.385,275.991 310.152,277.542L320.245,269.157L332.809,251.879L345.202,233.951L347.942,218.19C345.956,212.26 344.927,204.758 344.709,195.923L343.354,161.008L334.793,141.774L341.463,149.673L346.041,161.387L350.601,193.331L351.806,204.27L362.775,187.962L373.097,174.933C366.973,185.498 360.966,195.278 353.616,214.051L354.792,230.252L346.671,247.662L372.777,230.003L385.043,226.054C389.32,225.892 396.234,218.704 403.764,209.874L393.615,226.567C391.01,228.777 388.281,230.431 385.232,230.639L376.285,232.897L364.118,242.875L342.58,258.807L333.064,269.293L331.835,282.063C334.963,289.398 338.95,296.425 351.2,300.479L360.784,300.357C367.66,294.24 375.032,291.127 382.486,288.515C387.711,286.115 392.948,282.675 398.211,276.944L412.659,255.994L426.1,241.548L452.175,225.952L448.016,231.107L431.429,241.89L416.924,258.065L403.169,280.536L435.956,270.286L443.799,262.964L452.513,253.306L442.302,269.005L433.905,274.993L415.204,282.52L386.235,294.303L367.469,306.662C363.133,311.995 360.223,317.563 360.023,323.577C360.117,332.345 369.047,333.408 380.131,332.592L415.427,326.532L435.984,325.781C443.647,323.378 449.489,319.019 455.028,314.334C458.873,310.787 463.944,307.797 471.945,306.142L496.229,306.298C503.038,307.38 508.353,309.565 512.4,312.684L494.709,308.979C486.902,308.836 479.51,309.389 472.306,310.259C466.281,312.043 458.493,317.34 449.416,325.207L435.934,330.587L414.857,334.106C433.706,346.198 452.589,358.245 473.726,367.324L458.599,363.422L432.797,350.21C425.167,345.489 417.555,341.201 410.038,339.211L371.377,345.985C365.361,349.448 360.833,353.29 361.316,358.409C361.75,367.046 369.532,374.297 380.814,380.888L382.23,380.508L382.844,382.858L429.714,405.559L438.845,420.422L426.223,407.069L394.663,393.724L404.193,413.211L416.974,426.267L408.217,422.466L401.684,415.157L390.472,397.634L378.487,387.422L374.254,385.417L368.737,386.341L371.332,404.427L368.146,424.427L367.492,439.582L366.424,475.696L361.641,443.898L361.956,438.763L365.334,410.812C364.879,401.476 363.319,392.122 359.687,382.734C354.463,379.505 348.396,378.589 341.632,379.589C333.549,382.293 327.096,386.866 321.468,392.385L306.12,413.602L294.132,444.175C287.93,455.827 280.951,466.812 272.056,476.151L238.868,500.921C230.566,505.439 220.969,515.826 210.649,529.484C201.262,540.816 194.905,552.532 191.141,564.576C188.023,577.635 189.454,587.679 191.95,597.018C200.066,615.443 215.668,632.11 265.714,641.468L373.917,643.615L406.382,638.505L422.804,639.434C456.751,647.099 472.751,670.434 483.012,698.781L484.289,701.175L484.289,703.112L486.91,711.024C504.545,730.98 519.56,736.085 547.306,713.377L551.815,710.752L580.154,699.641L604.625,697.292C611.455,699.718 638.572,664.334 671.548,618.031L671.548,615.652L677.432,608.641L681.328,601.802L682.76,589.793C686.08,574.969 705.82,538.585 728.501,498.34C731.465,498.237 733.87,499.055 734.605,502.624C719.503,530.096 704.544,557.492 692.574,583.292C690.112,589.983 688.994,596.649 688.731,603.3C699.334,600.582 707.253,596.972 714.142,593.02L728.232,578.976C733.521,575.918 739.536,573.625 746.61,572.45C792.17,574.849 828.073,593.231 854.117,627.928L894.316,680.653C892.935,684.11 891.234,685.553 889.086,684.192C875.294,669.971 859.14,649.272 841.166,623.575L825.955,609.141C817.128,603.229 808.117,597.817 798.723,593.458L774.68,583.561L751.822,580.321C745.355,580.752 739.554,581.675 734.881,583.432L722.82,596.743C714.161,602.367 704.611,606.983 694.191,610.614C688.079,611.44 684.37,614.468 680.427,617.282L666.163,637.211C671.212,635.584 676.825,634.138 683.324,632.978L698.76,637.729C714.071,636.659 727.979,633.354 737.698,623.38C741.717,623 743.67,624.593 743.356,628.351C738.188,634.318 731.421,638.796 722.921,641.657C714.238,644.592 705.641,645.243 697.081,644.898L680.861,640.102C675.01,640.988 669.619,643.238 664.393,645.979L642.646,668.469L621.867,695.56C628.367,696.259 636.515,692.154 644.861,687.472L647.155,685.781L649.365,685.781L671.49,679.075L686.149,670.125L694.405,667.312L701.541,667.617C703.282,669.686 703.628,671.86 701.321,674.233L695.138,675.315C689.136,677.504 682.83,681.681 676.512,685.944L657.238,691.045L660.433,701.454C666.57,709.051 674.641,712.403 683.557,713.903C686.488,713.413 689.197,710.69 691.813,707.034C693.896,705.007 696.659,703.663 699.765,702.665C705.554,702.348 711.389,705.275 717.237,709.113C717.972,712.203 717.165,714.49 713.427,715.25C709.024,712.754 704.647,710.636 700.362,709.891C698.147,710.794 695.028,713.927 691.452,718.186C688.387,720.933 685.246,721.563 682.074,721.382C678.162,722.171 662.498,714.84 658.691,710.967L654.972,706.47C654.266,706.069 652.4,700.803 650.293,694.527L643.333,698.59L641.344,697.722L635.206,701.741L627.384,703.166L612.415,704.462L629.399,719.279L640.118,741.613L647.811,747.563L651.79,747.045C656.359,753.398 649.641,758.013 643.319,753.752C636.648,750.025 631.48,743.747 628.024,734.568L623.313,721.854C617.426,716.947 610.487,712.037 599.496,707.116C593.059,706.749 586.675,707.722 580.346,710.097C563.738,713.541 554.745,718.188 548.676,723.297C554.033,723.502 559.293,724.803 564.394,727.924C569.103,732.061 572.776,737.562 575.837,743.869L580.329,759.512C581.758,767.083 584.181,774.606 587.371,782.093C589.931,788.966 595.985,794.972 602.981,800.857C603.565,804.626 601.941,806.714 597.654,806.771L583.644,791.241L576.829,776.022L571.538,756.202L565.9,740.699L558.389,733.323C551.604,730.661 545.028,730.184 538.7,732.281L519.539,736.431C513.47,737.434 508.346,736.419 504.004,733.734L490.829,725.605C494.778,744.586 495.567,763.303 494.631,781.875C494.626,802.382 489.441,826.93 475.878,858.015C471.297,859.111 468.834,858.142 469.961,853.671C476.126,838.152 481.278,820.899 485.631,802.278C488.561,776.796 487.085,750.79 481.873,724.339C477.691,705.496 471.662,689.305 463.697,675.894C449.255,657.344 434.318,648.838 419.082,646.369C392.83,647.691 368.415,650.551 343.546,653.031C309.643,653.17 280.734,650.26 254.851,645.503C220.592,638.548 182.423,626.081 181.928,577.707C182.674,556.209 193.572,531.558 223.079,501.128C243.589,483.679 256.2,465.803 263.743,447.652L274.901,425.289C272.583,406.809 269.424,388.564 258.331,372.527C253.08,367.451 246.889,363.93 237.073,366.402L215.183,382.825L184.848,421.809C173.044,427.983 161.138,432.378 149.192,436.09L178.484,420.596C186.068,415.72 193.932,404.942 201.961,390.682L173.951,399.256L160.107,406.626L167.613,398.291L195.29,386.729C201.803,384.139 206.741,379.477 210.841,371.93C201.481,372.572 192.05,372.703 182.882,375.621L172.264,383.023C169.976,385.431 167.635,385.619 165.277,385.098L133.973,382.163Z" style="fill:none;stroke-width:3.46px;stroke:rgb(255,56,0);"/>
        <path d="M133.973,382.163L166.345,381.157C171.116,379.383 174.838,376.144 178.249,372.47C182.691,369.133 189.713,366.867 201.109,366.418L221.32,363.618L240.524,349.044C237.361,346.307 231.468,343.299 224.435,340.177C218.534,342.886 212.63,344.334 206.723,344.982C201.15,345.185 195.572,344.797 189.98,342.417C177.854,336.436 165.798,330.342 152.724,325.896L137.539,327.053C128.277,325.896 122.621,323.198 117.976,320.068L97.584,304.861L134.336,322.512L142.423,322.373L150.004,321.206C154.636,321.074 159.165,321.92 163.6,323.659L192.867,336.498C196.895,337.789 202.066,338.181 208.379,337.674L228.444,330.753C232.056,328.906 233.277,326.257 233.84,323.389L180.311,314.393L128.834,294.338L180.483,309.207L214.859,312.509C210.953,309.355 207.604,305.583 204.868,301.133C201.028,296.162 196.228,292.684 190.892,290.038C179.386,285.104 168.878,283.163 158.313,281.047L184.982,282.771C192.117,285.087 199.25,287.518 206.364,293.488L215.44,304.339C222.395,309.247 229.941,312.254 237.493,315.245L251.297,316.347C254.047,313.281 255.641,308.903 254.809,301.772C251.887,296.005 248.13,290.413 244.105,284.877L215.266,274.693C204.938,269.319 194.273,265.158 183.461,261.526L160.721,245.234L184.949,257.957L236.41,274.854L230.437,261.9C225.774,255.956 220.046,251.364 213.936,247.259L207.585,241.757L185.568,206.76L211.458,238.862L228.055,250.251C228.062,246.283 227.29,242.027 225.578,237.422L219.973,228.253L207.903,214.32L222.659,223.616C226.751,227.154 230.129,231.417 231.519,237.698L236.825,260.754C239.523,268.646 244.862,275.975 255.739,282.126C263.998,283.28 272.234,282.707 280.416,278.004L253.711,241.431L238.398,217.196L222.037,203.017L207.457,193.447L187.611,182.509L210.473,191.238C219.35,196.241 227.889,200.537 239.56,211.377L251.021,226.324C260.793,241.105 271.95,255.739 283.997,270.278L286.472,263.046C287.271,259.542 287.475,255.612 286.547,250.871C284.448,240.724 279.813,231.785 273.968,223.421C270.093,218.242 266.142,214.072 262.132,210.682L249.905,199.277C243.586,191.965 238.954,184.248 235.625,176.218L225.59,152.921C236.188,173.379 247.009,193.431 262.739,204.487L260.135,191.025C260.015,186.429 260.83,181.878 262.035,177.347L265.001,166.089L265.437,143.255L268.907,158.023L266.221,177.263C264.405,183.582 264.197,189.662 265.228,195.558L268.951,203.626L286.76,231.146C290.927,237.901 294.446,245.001 296.543,252.862C297.449,258.218 297.393,263.568 296.178,268.91C300.74,272.957 305.385,275.991 310.152,277.542L320.245,269.157L332.809,251.879L345.202,233.951L347.942,218.19C345.956,212.26 344.927,204.758 344.709,195.923L343.354,161.008L334.793,141.774L341.463,149.673L346.041,161.387L350.601,193.331L351.806,204.27L362.775,187.962L373.097,174.933C366.973,185.498 360.966,195.278 353.616,214.051L354.792,230.252L346.671,247.662L372.777,230.003L385.043,226.054C389.32,225.892 396.234,218.704 403.764,209.874L393.615,226.567C391.01,228.777 388.281,230.431 385.232,230.639L376.285,232.897L364.118,242.875L342.58,258.807L333.064,269.293L331.835,282.063C334.963,289.398 338.95,296.425 351.2,300.479L360.784,300.357C367.66,294.24 375.032,291.127 382.486,288.515C387.711,286.115 392.948,282.675 398.211,276.944L412.659,255.994L426.1,241.548L452.175,225.952L448.016,231.107L431.429,241.89L416.924,258.065L403.169,280.536L435.956,270.286L443.799,262.964L452.513,253.306L442.302,269.005L433.905,274.993L415.204,282.52L386.235,294.303L367.469,306.662C363.133,311.995 360.223,317.563 360.023,323.577C360.117,332.345 369.047,333.408 380.131,332.592L415.427,326.532L435.984,325.781C443.647,323.378 449.489,319.019 455.028,314.334C458.873,310.787 463.944,307.797 471.945,306.142L496.229,306.298C503.038,307.38 508.353,309.565 512.4,312.684L494.709,308.979C486.902,308.836 479.51,309.389 472.306,310.259C466.281,312.043 458.493,317.34 449.416,325.207L435.934,330.587L414.857,334.106C433.706,346.198 452.589,358.245 473.726,367.324L458.599,363.422L432.797,350.21C425.167,345.489 417.555,341.201 410.038,339.211L371.377,345.985C365.361,349.448 360.833,353.29 361.316,358.409C361.75,367.046 369.532,374.297 380.814,380.888L382.23,380.508L382.844,382.858L429.714,405.559L438.845,420.422L426.223,407.069L394.663,393.724L404.193,413.211L416.974,426.267L408.217,422.466L401.684,415.157L390.472,397.634L378.487,387.422L374.254,385.417L368.737,386.341L371.332,404.427L368.146,424.427L367.492,439.582L366.424,475.696L361.641,443.898L361.956,438.763L365.334,410.812C364.879,401.476 363.319,392.122 359.687,382.734C354.463,379.505 348.396,378.589 341.632,379.589C333.549,382.293 327.096,386.866 321.468,392.385L306.12,413.602L294.132,444.175C287.93,455.827 280.951,466.812 272.056,476.151L238.868,500.921C230.566,505.439 220.969,515.826 210.649,529.484C201.262,540.816 194.905,552.532 191.141,564.576C188.023,577.635 189.454,587.679 191.95,597.018C200.066,615.443 215.668,632.11 265.714,641.468L373.917,643.615L406.382,638.505L422.804,639.434C456.751,647.099 472.751,670.434 483.012,698.781L484.289,701.175L484.289,703.112L486.91,711.024C504.545,730.98 519.56,736.085 547.306,713.377L551.815,710.752L580.154,699.641L604.625,697.292C611.455,699.718 638.572,664.334 671.548,618.031L671.548,615.652L677.432,608.641L681.328,601.802L682.76,589.793C686.08,574.969 705.82,538.585 728.501,498.34C731.465,498.237 733.87,499.055 734.605,502.624C719.503,530.096 704.544,557.492 692.574,583.292C690.112,589.983 688.994,596.649 688.731,603.3C699.334,600.582 707.253,596.972 714.142,593.02L728.232,578.976C733.521,575.918 739.536,573.625 746.61,572.45C792.17,574.849 828.073,593.231 854.117,627.928L894.316,680.653C892.935,684.11 891.234,685.553 889.086,684.192C875.294,669.971 859.14,649.272 841.166,623.575L825.955,609.141C817.128,603.229 808.117,597.817 798.723,593.458L774.68,583.561L751.822,580.321C745.355,580.752 739.554,581.675 734.881,583.432L722.82,596.743C714.161,602.367 704.611,606.983 694.191,610.614C688.079,611.44 684.37,614.468 680.427,617.282L666.163,637.211C671.212,635.584 676.825,634.138 683.324,632.978L698.76,637.729C714.071,636.659 727.979,633.354 737.698,623.38C741.717,623 743.67,624.593 743.356,628.351C738.188,634.318 731.421,638.796 722.921,641.657C714.238,644.592 705.641,645.243 697.081,644.898L680.861,640.102C675.01,640.988 669.619,643.238 664.393,645.979L642.646,668.469L621.867,695.56C628.367,696.259 636.515,692.154 644.861,687.472L647.155,685.781L649.365,685.781L671.49,679.075L686.149,670.125L694.405,667.312L701.541,667.617C703.282,669.686 703.628,671.86 701.321,674.233L695.138,675.315C689.136,677.504 682.83,681.681 676.512,685.944L657.238,691.045L660.433,701.454C666.57,709.051 674.641,712.403 683.557,713.903C686.488,713.413 689.197,710.69 691.813,707.034C693.896,705.007 696.659,703.663 699.765,702.665C705.554,702.348 711.389,705.275 717.237,709.113C717.972,712.203 717.165,714.49 713.427,715.25C709.024,712.754 704.647,710.636 700.362,709.891C698.147,710.794 695.028,713.927 691.452,718.186C688.387,720.933 685.246,721.563 682.074,721.382C678.162,722.171 662.498,714.84 658.691,710.967L654.972,706.47C654.266,706.069 652.4,700.803 650.293,694.527L643.333,698.59L641.344,697.722L635.206,701.741L627.384,703.166L612.415,704.462L629.399,719.279L640.118,741.613L647.811,747.563L651.79,747.045C656.359,753.398 649.641,758.013 643.319,753.752C636.648,750.025 631.48,743.747 628.024,734.568L623.313,721.854C617.426,716.947 610.487,712.037 599.496,707.116C593.059,706.749 586.675,707.722 580.346,710.097C563.738,713.541 554.745,718.188 548.676,723.297C554.033,723.502 559.293,724.803 564.394,727.924C569.103,732.061 572.776,737.562 575.837,743.869L580.329,759.512C581.758,767.083 584.181,774.606 587.371,782.093C589.931,788.966 595.985,794.972 602.981,800.857C603.565,804.626 601.941,806.714 597.654,806.771L583.644,791.241L576.829,776.022L571.538,756.202L565.9,740.699L558.389,733.323C551.604,730.661 545.028,730.184 538.7,732.281L519.539,736.431C513.47,737.434 508.346,736.419 504.004,733.734L490.829,725.605C494.778,744.586 495.567,763.303 494.631,781.875C494.626,802.382 489.441,826.93 475.878,858.015C471.297,859.111 468.834,858.142 469.961,853.671C476.126,838.152 481.278,820.899 485.631,802.278C488.561,776.796 487.085,750.79 481.873,724.339C477.691,705.496 471.662,689.305 463.697,675.894C449.255,657.344 434.318,648.838 419.082,646.369C392.83,647.691 368.415,650.551 343.546,653.031C309.643,653.17 280.734,650.26 254.851,645.503C220.592,638.548 182.423,626.081 181.928,577.707C182.674,556.209 193.572,531.558 223.079,501.128C243.589,483.679 256.2,465.803 263.743,447.652L274.901,425.289C272.583,406.809 269.424,388.564 258.331,372.527C253.08,367.451 246.889,363.93 237.073,366.402L215.183,382.825L184.848,421.809C173.044,427.983 161.138,432.378 149.192,436.09L178.484,420.596C186.068,415.72 193.932,404.942 201.961,390.682L173.951,399.256L160.107,406.626L167.613,398.291L195.29,386.729C201.803,384.139 206.741,379.477 210.841,371.93C201.481,372.572 192.05,372.703 182.882,375.621L172.264,383.023C169.976,385.431 167.635,385.619 165.277,385.098L133.973,382.163Z" style="fill:black;"/>
    </g>
</svg>
