<?xml version="1.0" standalone="no"?>
<!DOCTYPE svg PUBLIC "-//W3C//DTD SVG 1.1//EN" "http://www.w3.org/Graphics/SVG/1.1/DTD/svg11.dtd">
<svg width="100%" height="100%" viewBox="0 0 1024 1024" version="1.1" xmlns="http://www.w3.org/2000/svg" xmlns:xlink="http://www.w3.org/1999/xlink" xml:space="preserve" style="fill-rule:evenodd;clip-rule:evenodd;stroke-linejoin:round;stroke-miterlimit:1.41421;">
    <g transform="matrix(1.00605,1.65734e-18,1.65734e-18,0.99928,-1.90478,-1.71077)">
        <rect x="1.893" y="1.712" width="1017.85" height="1024.74" style="fill:rgb(127,207,238);"/>
    </g>
    <g id="Clock">
        <path d="M634.3,340.18C634.3,334.183 629.438,329.322 623.441,329.322L399.209,329.322C393.213,329.322 388.351,334.183 388.351,340.18L388.351,389.08C388.351,395.077 393.213,399.939 399.209,399.939L623.441,399.939C629.438,399.939 634.3,395.077 634.3,389.08L634.3,340.18Z" style="fill:rgb(245,245,245);"/>
        <path d="M635.438,634.744C635.438,628.747 630.576,623.886 624.579,623.886L396.722,623.886C390.726,623.886 385.864,628.747 385.864,634.744L385.864,683.644C385.864,689.641 390.726,694.503 396.722,694.503L624.579,694.503C630.576,694.503 635.438,689.641 635.438,683.644L635.438,634.744Z" style="fill:rgb(245,245,245);"/>
        <path d="M414.29,372.832L414.058,203.431C430.174,196.068 450.335,190.457 478.921,188.493L478.904,352.124L414.29,372.832L414.29,372.832Z" style="fill:rgb(226,87,76);"/>
        <path d="M606.145,372.473L606.377,203.072C590.261,195.709 570.1,190.098 541.514,188.134L541.531,351.765L606.145,372.473L606.145,372.473Z" style="fill:rgb(50,77,90);"/>
        <rect x="478.917" y="188.491" width="67.133" height="160.726" style="fill:rgb(227,231,231);"/>
        <path d="M412.671,651.971L412.439,821.372C428.555,828.735 448.716,834.346 477.302,836.31L477.285,672.679L412.671,651.971L412.671,651.971Z" style="fill:rgb(226,87,76);"/>
        <path d="M604.526,652.33L604.758,821.731C588.642,829.094 568.481,834.705 539.895,836.669L539.912,673.038L604.526,652.33L604.526,652.33Z" style="fill:rgb(50,77,90);"/>
        <rect x="477.298" y="675.585" width="67.133" height="160.726" style="fill:rgb(227,231,231);"/>
        <circle cx="512" cy="512" r="173" style="fill:rgb(251,255,255);"/>
        <circle cx="511.68" cy="511.709" r="150" style="fill:rgb(204,208,210);"/>
        <path d="M551.153,481.657L445.605,588.993C441.244,594.719 428.314,585.914 435.293,579.051L540.825,472.398C544.031,468.411 555.042,476.673 551.153,481.657L551.153,481.657Z" style="fill:rgb(222,110,100);"/>
        <path d="M486.17,504.503L446.982,463.171C445.122,450.829 451.142,446.61 461.368,446.728L503.368,487.902L486.17,504.503Z" style="fill:rgb(50,77,89);"/>
        <path d="M535.978,519.157L615.258,519.512C624.935,519.615 625.1,505.633 615.293,505.607L535.88,505.648L535.978,519.157L535.978,519.157Z" style="fill:rgb(50,77,89);"/>
        <ellipse cx="511.296" cy="511.674" rx="27.5" ry="27.501" style="fill:rgb(251,255,255);"/>
        <circle cx="511.403" cy="512.059" r="12.5" style="fill:rgb(50,77,88);"/>
    </g>
</svg>
