<?xml version="1.0" standalone="no"?>
<!DOCTYPE svg PUBLIC "-//W3C//DTD SVG 1.1//EN" "http://www.w3.org/Graphics/SVG/1.1/DTD/svg11.dtd">
<svg width="100%" height="100%" viewBox="0 0 1500 500" version="1.1" xmlns="http://www.w3.org/2000/svg" xmlns:xlink="http://www.w3.org/1999/xlink" xml:space="preserve" style="fill-rule:evenodd;clip-rule:evenodd;stroke-linejoin:round;stroke-miterlimit:1.41421;">
    <g id="Layer1" transform="matrix(1,0,0,1,238,-262)">
        <g transform="matrix(1,0,0,1,96.5524,259.997)">
            <path d="M104.464,235.818L93.196,235.818L93.196,141.72L60.708,141.72L60.708,131.33L137.098,131.33L137.098,141.72L104.464,141.72L104.464,235.818Z" style="fill:black;fill-rule:nonzero;"/>
            <path d="M150.854,235.818L150.854,125.769L162.122,125.769L162.122,166.452L162.562,166.452C164.025,163.232 166.659,160.403 170.464,157.964C174.269,155.525 179.196,154.306 185.244,154.306C194.22,154.306 201.44,157.208 206.903,163.013C212.366,168.818 215.098,176.354 215.098,185.623L215.098,235.818L203.83,235.818L203.83,187.818C203.83,180.891 202.098,175.306 198.635,171.062C195.171,166.818 190.171,164.696 183.635,164.696C179.147,164.696 175.269,165.647 172.001,167.549C168.732,169.452 166.269,172.159 164.61,175.671C162.952,179.184 162.122,183.33 162.122,188.11L162.122,235.818L150.854,235.818Z" style="fill:black;fill-rule:nonzero;"/>
            <path d="M284.171,224.696C282.025,228.306 278.952,231.281 274.952,233.623C270.952,235.964 266.122,237.135 260.464,237.135C255.293,237.135 250.732,236.135 246.781,234.135C242.83,232.135 239.757,229.306 237.562,225.647C235.366,221.989 234.269,217.72 234.269,212.842C234.269,205.818 236.683,200.208 241.513,196.013C246.342,191.818 253.244,189.72 262.22,189.72L284.025,189.72L284.025,179.769C284.025,169.525 278.074,164.403 266.171,164.403C255.44,164.403 249.488,168.842 248.318,177.72L237.342,177.72C237.732,170.501 240.415,164.793 245.391,160.598C250.366,156.403 257.488,154.306 266.757,154.306C271.244,154.306 275.22,154.793 278.683,155.769C282.147,156.745 285.147,158.257 287.683,160.306C290.22,162.354 292.147,165.013 293.464,168.281C294.781,171.549 295.44,175.33 295.44,179.623L295.44,235.818L284.464,235.818L284.464,224.696L284.171,224.696ZM263.098,227.33C269.049,227.33 274.025,225.525 278.025,221.915C282.025,218.306 284.025,213.818 284.025,208.452L284.025,199.232L262.513,199.232C256.952,199.232 252.781,200.452 250.001,202.891C247.22,205.33 245.83,208.598 245.83,212.696C245.83,217.379 247.488,220.989 250.805,223.525C254.122,226.062 258.22,227.33 263.098,227.33Z" style="fill:black;fill-rule:nonzero;"/>
            <path d="M319.293,235.818L319.293,155.623L330.562,155.623L330.562,166.452L330.854,166.452C332.513,163.037 335.391,160.159 339.488,157.818C343.586,155.476 348.513,154.306 354.269,154.306C362.562,154.306 369.464,156.793 374.976,161.769C380.488,166.745 383.244,173.623 383.244,182.403L383.244,235.818L371.83,235.818L371.83,186.647C371.83,172.013 365.098,164.696 351.635,164.696C344.805,164.696 339.586,166.696 335.976,170.696C332.366,174.696 330.562,180.354 330.562,187.671L330.562,235.818L319.293,235.818Z" style="fill:black;fill-rule:nonzero;"/>
            <path d="M418.366,205.525L418.366,235.818L407.098,235.818L407.098,125.769L418.366,125.769L418.366,192.793L418.805,192.793L454.074,155.476L467.244,155.476L434.757,190.306L469.293,235.818L455.683,235.818L426.562,197.476L418.366,205.525Z" style="fill:black;fill-rule:nonzero;"/>
            <path d="M576.122,155.623L547.147,236.549L544.952,242.549C543.683,245.964 542.464,248.793 541.293,251.037C540.122,253.281 538.586,255.574 536.683,257.915C534.781,260.257 532.415,261.989 529.586,263.11C526.757,264.232 523.488,264.793 519.781,264.793C517.342,264.793 514.757,264.598 512.025,264.208L512.025,254.696C513.683,254.989 515.659,255.135 517.952,255.135C520.244,255.135 522.269,254.842 524.025,254.257C525.781,253.671 527.293,252.793 528.562,251.623C529.83,250.452 530.879,249.11 531.708,247.598C532.537,246.086 533.244,244.208 533.83,241.964L535.293,237.135L505.44,155.623L517.879,155.623L540.854,224.11L541.293,224.11L564.122,155.623L576.122,155.623Z" style="fill:black;fill-rule:nonzero;"/>
            <path d="M618.708,154.306C629.83,154.306 638.244,157.696 643.952,164.476C649.659,171.257 652.513,180.452 652.513,192.062L652.513,199.232C652.513,210.842 649.659,220.062 643.952,226.891C638.244,233.72 629.83,237.135 618.708,237.135C607.586,237.135 599.147,233.745 593.391,226.964C587.635,220.184 584.757,210.94 584.757,199.232L584.757,192.062C584.757,180.745 587.635,171.623 593.391,164.696C599.147,157.769 607.586,154.306 618.708,154.306ZM618.708,164.257C610.903,164.257 605.147,166.94 601.44,172.306C597.732,177.671 595.879,184.696 595.879,193.379L595.879,198.062C595.879,206.842 597.708,213.867 601.366,219.135C605.025,224.403 610.805,227.037 618.708,227.037C626.513,227.037 632.22,224.403 635.83,219.135C639.44,213.867 641.244,206.842 641.244,198.062L641.244,193.379C641.244,184.696 639.44,177.671 635.83,172.306C632.22,166.94 626.513,164.257 618.708,164.257Z" style="fill:black;fill-rule:nonzero;"/>
            <path d="M735.927,155.623L735.927,235.818L724.659,235.818L724.659,224.842L724.22,224.842C722.659,228.452 719.879,231.403 715.879,233.696C711.879,235.989 706.805,237.135 700.659,237.135C692.171,237.135 685.318,234.745 680.098,229.964C674.879,225.184 672.269,218.306 672.269,209.33L672.269,155.623L683.537,155.623L683.537,206.11C683.537,210.989 684.44,215.013 686.244,218.184C688.049,221.354 690.415,223.574 693.342,224.842C696.269,226.11 699.683,226.745 703.586,226.745C709.927,226.745 715.025,224.818 718.879,220.964C722.732,217.11 724.659,211.915 724.659,205.379L724.659,155.623L735.927,155.623Z" style="fill:black;fill-rule:nonzero;"/>
            <path d="M759.342,229.232C759.342,226.891 760.098,224.94 761.61,223.379C763.122,221.818 765.001,221.037 767.244,221.037C769.586,221.037 771.513,221.793 773.025,223.306C774.537,224.818 775.293,226.793 775.293,229.232C775.293,231.476 774.537,233.354 773.025,234.867C771.513,236.379 769.586,237.135 767.244,237.135C765.098,237.135 763.244,236.354 761.683,234.793C760.122,233.232 759.342,231.379 759.342,229.232ZM761.098,131.33L773.83,131.33L772.513,205.086L762.562,205.086L761.098,131.33Z" style="fill:black;fill-rule:nonzero;"/>
        </g>
        <g transform="matrix(0.571143,0,0,0.571143,-212.034,475.266)">
            <path d="M82.14,235.818L96.396,235.818L110.508,178.938C112.092,171.594 113.676,164.826 115.26,157.482L115.836,157.482C117.132,164.826 118.716,171.594 120.3,178.938L134.556,235.818L149.1,235.818L168.684,141.354L157.02,141.354L147.084,192.762C145.356,202.842 143.628,213.066 141.756,223.29L141.18,223.29C138.876,213.066 136.572,202.698 134.412,192.762L121.308,141.354L110.364,141.354L97.26,192.762C94.956,202.842 92.652,213.066 90.636,223.29L90.06,223.29C88.188,213.066 86.316,202.986 84.444,192.762L74.508,141.354L62.124,141.354L82.14,235.818Z" style="fill:black;fill-rule:nonzero;"/>
            <path d="M178.332,200.97C178.332,223.866 193.164,237.546 211.884,237.546C221.388,237.546 228.876,234.234 234.924,230.346L230.748,222.57C225.564,225.882 219.948,228.042 213.324,228.042C199.932,228.042 190.86,218.538 189.996,203.418L237.228,203.418C237.516,201.69 237.66,199.386 237.66,196.938C237.66,176.922 227.58,164.106 209.724,164.106C193.74,164.106 178.332,178.074 178.332,200.97ZM189.852,195.642C191.292,181.53 200.22,173.466 210.012,173.466C220.956,173.466 227.292,181.386 227.292,195.642L189.852,195.642Z" style="fill:black;fill-rule:nonzero;"/>
            <path d="M257.388,173.754L264.588,173.754L266.892,149.706L267.324,136.458L254.652,136.458L255.084,149.706L257.388,173.754Z" style="fill:black;fill-rule:nonzero;"/>
            <path d="M290.796,221.706C290.796,231.93 294.396,237.546 303.324,237.546C306.492,237.546 308.508,237.114 310.092,236.394L308.508,227.466C307.212,227.754 306.636,227.754 305.916,227.754C304.188,227.754 302.604,226.314 302.604,222.57L302.604,133.29L290.796,133.29L290.796,221.706Z" style="fill:black;fill-rule:nonzero;"/>
            <path d="M327.516,221.706C327.516,231.93 331.116,237.546 340.044,237.546C343.212,237.546 345.228,237.114 346.812,236.394L345.228,227.466C343.932,227.754 343.356,227.754 342.636,227.754C340.908,227.754 339.324,226.314 339.324,222.57L339.324,133.29L327.516,133.29L327.516,221.706Z" style="fill:black;fill-rule:nonzero;"/>
            <path d="M398.364,247.626C398.364,243.594 400.524,239.418 405.564,235.818C408.588,236.682 411.9,236.97 414.636,236.97L426.732,236.97C435.804,236.97 440.844,239.13 440.844,245.61C440.844,252.954 432.06,259.866 418.668,259.866C405.996,259.866 398.364,255.114 398.364,247.626ZM387.996,249.21C387.996,261.306 399.804,268.074 416.94,268.074C438.684,268.074 452.364,256.842 452.364,243.882C452.364,232.218 444.156,227.178 427.884,227.178L414.348,227.178C404.844,227.178 401.964,224.01 401.964,219.546C401.964,215.658 403.98,213.354 406.428,211.194C409.596,212.778 413.484,213.642 416.94,213.642C431.196,213.642 442.572,204.282 442.572,189.306C442.572,183.402 440.124,178.074 436.812,174.906L451.212,174.906L451.212,165.834L426.876,165.834C424.284,164.826 420.828,164.106 416.94,164.106C402.684,164.106 390.588,173.754 390.588,189.018C390.588,197.37 395.052,204.138 399.66,207.882L399.66,208.458C396.06,210.906 392.028,215.514 392.028,221.418C392.028,226.89 394.764,230.634 398.22,232.794L398.22,233.37C391.884,237.69 387.996,243.306 387.996,249.21ZM416.94,205.722C408.876,205.722 402.108,199.242 402.108,189.018C402.108,178.794 408.732,172.746 416.94,172.746C425.148,172.746 431.772,178.794 431.772,189.018C431.772,199.242 425.004,205.722 416.94,205.722Z" style="fill:black;fill-rule:nonzero;"/>
            <path d="M458.7,200.97C458.7,223.866 473.532,237.546 492.252,237.546C501.756,237.546 509.244,234.234 515.292,230.346L511.116,222.57C505.932,225.882 500.316,228.042 493.692,228.042C480.3,228.042 471.228,218.538 470.364,203.418L517.596,203.418C517.884,201.69 518.028,199.386 518.028,196.938C518.028,176.922 507.948,164.106 490.092,164.106C474.108,164.106 458.7,178.074 458.7,200.97ZM470.22,195.642C471.66,181.53 480.588,173.466 490.38,173.466C501.324,173.466 507.66,181.386 507.66,195.642L470.22,195.642Z" style="fill:black;fill-rule:nonzero;"/>
            <path d="M535.308,214.218C535.308,228.042 540.348,237.546 555.324,237.546C559.644,237.546 564.396,236.25 568.284,234.954L565.98,226.026C563.676,226.89 560.508,227.898 558.06,227.898C549.996,227.898 547.26,223.002 547.26,214.362L547.26,175.482L566.124,175.482L566.124,165.834L547.26,165.834L547.26,146.25L537.324,146.25L535.884,165.834L524.94,166.554L524.94,175.482L535.308,175.482L535.308,214.218Z" style="fill:black;fill-rule:nonzero;"/>
            <path d="M611.052,235.818L620.556,235.818L621.564,228.906L621.996,228.906C628.188,234.378 635.532,237.546 642.012,237.546C657.996,237.546 672.252,223.578 672.252,199.674C672.252,178.074 662.604,164.106 644.46,164.106C636.684,164.106 628.908,168.282 622.572,173.898L622.86,161.226L622.86,133.29L611.052,133.29L611.052,235.818ZM622.86,220.266L622.86,183.546C629.484,177.354 635.676,174.042 641.58,174.042C654.828,174.042 660.012,184.41 660.012,199.818C660.012,217.098 651.516,227.61 639.996,227.61C635.388,227.61 629.052,225.594 622.86,220.266Z" style="fill:black;fill-rule:nonzero;"/>
            <path d="M685.5,217.674C685.5,230.202 694.284,237.546 706.092,237.546C714.732,237.546 722.508,232.938 729.276,227.466L729.564,227.466L730.572,235.818L740.364,235.818L740.364,192.906C740.364,175.482 733.164,164.106 716.028,164.106C704.796,164.106 695.004,169.002 688.524,173.178L693.276,181.386C698.748,177.642 705.948,173.898 714.156,173.898C725.532,173.898 728.556,182.538 728.556,191.466C698.748,194.778 685.5,202.41 685.5,217.674ZM697.164,216.81C697.164,207.882 705.084,202.122 728.556,199.242L728.556,218.682C721.788,224.73 716.172,228.042 709.404,228.042C702.492,228.042 697.164,224.73 697.164,216.81Z" style="fill:black;fill-rule:nonzero;"/>
            <path d="M757.5,200.97C757.5,224.154 771.756,237.546 790.332,237.546C798.684,237.546 806.748,234.09 813.084,228.474L807.756,220.698C803.58,224.442 797.964,227.754 791.34,227.754C778.524,227.754 769.74,216.954 769.74,200.97C769.74,184.842 778.956,173.898 791.628,173.898C797.244,173.898 801.564,176.49 805.74,180.09L811.644,172.458C806.892,167.994 800.412,164.106 791.196,164.106C773.196,164.106 757.5,177.498 757.5,200.97Z" style="fill:black;fill-rule:nonzero;"/>
            <path d="M828.348,235.818L840.012,235.818L840.012,217.386L853.116,202.122L873.564,235.818L886.524,235.818L859.884,193.914L883.356,165.834L870.252,165.834L840.444,202.698L840.012,202.698L840.012,133.29L828.348,133.29L828.348,235.818Z" style="fill:black;fill-rule:nonzero;"/>
            <path d="M930.732,214.218C930.732,228.042 935.772,237.546 950.748,237.546C955.068,237.546 959.82,236.25 963.708,234.954L961.404,226.026C959.1,226.89 955.932,227.898 953.484,227.898C945.42,227.898 942.684,223.002 942.684,214.362L942.684,175.482L961.548,175.482L961.548,165.834L942.684,165.834L942.684,146.25L932.748,146.25L931.308,165.834L920.364,166.554L920.364,175.482L930.732,175.482L930.732,214.218Z" style="fill:black;fill-rule:nonzero;"/>
            <path d="M970.764,200.97C970.764,224.154 986.028,237.546 1003.16,237.546C1020.3,237.546 1035.56,224.154 1035.56,200.97C1035.56,177.498 1020.3,164.106 1003.16,164.106C986.028,164.106 970.764,177.498 970.764,200.97ZM983.004,200.97C983.004,184.842 991.212,173.898 1003.16,173.898C1015.26,173.898 1023.32,184.842 1023.32,200.97C1023.32,216.954 1015.26,227.754 1003.16,227.754C991.212,227.754 983.004,216.954 983.004,200.97Z" style="fill:black;fill-rule:nonzero;"/>
            <path d="M1078.33,255.114L1076.03,264.474C1078.33,265.338 1081.07,265.914 1084.24,265.914C1098.35,265.914 1105.55,255.402 1110.44,241.578L1136.8,165.834L1125.28,165.834L1112.75,204.57C1110.88,210.762 1108.86,217.962 1106.84,224.298L1106.27,224.298C1104.11,217.818 1101.66,210.618 1099.5,204.57L1085.24,165.834L1073,165.834L1101.08,235.962L1099.5,241.146C1096.62,249.786 1091.58,256.122 1083.66,256.122C1081.93,256.122 1079.77,255.546 1078.33,255.114Z" style="fill:black;fill-rule:nonzero;"/>
            <path d="M1144.57,200.97C1144.57,224.154 1159.84,237.546 1176.97,237.546C1194.11,237.546 1209.37,224.154 1209.37,200.97C1209.37,177.498 1194.11,164.106 1176.97,164.106C1159.84,164.106 1144.57,177.498 1144.57,200.97ZM1156.81,200.97C1156.81,184.842 1165.02,173.898 1176.97,173.898C1189.07,173.898 1197.13,184.842 1197.13,200.97C1197.13,216.954 1189.07,227.754 1176.97,227.754C1165.02,227.754 1156.81,216.954 1156.81,200.97Z" style="fill:black;fill-rule:nonzero;"/>
            <path d="M1226.8,210.186C1226.8,228.042 1233.42,237.546 1248.25,237.546C1257.9,237.546 1264.81,232.506 1271.29,224.874L1271.72,224.874L1272.73,235.818L1282.52,235.818L1282.52,165.834L1270.72,165.834L1270.72,215.514C1264.09,223.722 1259.05,227.322 1251.85,227.322C1242.64,227.322 1238.75,221.706 1238.75,208.602L1238.75,165.834L1226.8,165.834L1226.8,210.186Z" style="fill:black;fill-rule:nonzero;"/>
            <path d="M1331.77,217.674C1331.77,230.202 1340.56,237.546 1352.36,237.546C1361,237.546 1368.78,232.938 1375.55,227.466L1375.84,227.466L1376.84,235.818L1386.64,235.818L1386.64,192.906C1386.64,175.482 1379.44,164.106 1362.3,164.106C1351.07,164.106 1341.28,169.002 1334.8,173.178L1339.55,181.386C1345.02,177.642 1352.22,173.898 1360.43,173.898C1371.8,173.898 1374.83,182.538 1374.83,191.466C1345.02,194.778 1331.77,202.41 1331.77,217.674ZM1343.44,216.81C1343.44,207.882 1351.36,202.122 1374.83,199.242L1374.83,218.682C1368.06,224.73 1362.44,228.042 1355.68,228.042C1348.76,228.042 1343.44,224.73 1343.44,216.81Z" style="fill:black;fill-rule:nonzero;"/>
            <path d="M1401.18,227.898C1407.8,233.37 1417.31,237.546 1427.24,237.546C1443.8,237.546 1452.88,228.042 1452.88,216.666C1452.88,203.418 1441.64,199.242 1431.56,195.498C1423.64,192.474 1416.01,189.882 1416.01,183.402C1416.01,178.074 1420.04,173.322 1428.83,173.322C1435.02,173.322 1440.06,175.914 1444.81,179.514L1450.43,172.026C1445.1,167.706 1437.47,164.106 1428.68,164.106C1413.56,164.106 1404.64,172.746 1404.64,183.978C1404.64,195.786 1415.58,200.538 1425.52,204.138C1433.15,207.018 1441.5,210.186 1441.5,217.386C1441.5,223.434 1436.89,228.33 1427.68,228.33C1419.32,228.33 1413.13,224.874 1407.08,219.978L1401.18,227.898Z" style="fill:black;fill-rule:nonzero;"/>
            <path d="M1490.6,227.898C1497.23,233.37 1506.73,237.546 1516.67,237.546C1533.23,237.546 1542.3,228.042 1542.3,216.666C1542.3,203.418 1531.07,199.242 1520.99,195.498C1513.07,192.474 1505.44,189.882 1505.44,183.402C1505.44,178.074 1509.47,173.322 1518.25,173.322C1524.44,173.322 1529.48,175.914 1534.24,179.514L1539.85,172.026C1534.52,167.706 1526.89,164.106 1518.11,164.106C1502.99,164.106 1494.06,172.746 1494.06,183.978C1494.06,195.786 1505,200.538 1514.94,204.138C1522.57,207.018 1530.92,210.186 1530.92,217.386C1530.92,223.434 1526.32,228.33 1517.1,228.33C1508.75,228.33 1502.56,224.874 1496.51,219.978L1490.6,227.898Z" style="fill:black;fill-rule:nonzero;"/>
            <path d="M1553.53,200.97C1553.53,224.154 1568.8,237.546 1585.93,237.546C1603.07,237.546 1618.33,224.154 1618.33,200.97C1618.33,177.498 1603.07,164.106 1585.93,164.106C1568.8,164.106 1553.53,177.498 1553.53,200.97ZM1565.77,200.97C1565.77,184.842 1573.98,173.898 1585.93,173.898C1598.03,173.898 1606.09,184.842 1606.09,200.97C1606.09,216.954 1598.03,227.754 1585.93,227.754C1573.98,227.754 1565.77,216.954 1565.77,200.97Z" style="fill:black;fill-rule:nonzero;"/>
            <path d="M1631.58,200.97C1631.58,224.154 1646.84,237.546 1663.98,237.546C1681.12,237.546 1696.38,224.154 1696.38,200.97C1696.38,177.498 1681.12,164.106 1663.98,164.106C1646.84,164.106 1631.58,177.498 1631.58,200.97ZM1643.82,200.97C1643.82,184.842 1652.03,173.898 1663.98,173.898C1676.08,173.898 1684.14,184.842 1684.14,200.97C1684.14,216.954 1676.08,227.754 1663.98,227.754C1652.03,227.754 1643.82,216.954 1643.82,200.97Z" style="fill:black;fill-rule:nonzero;"/>
            <path d="M1714.81,235.818L1726.62,235.818L1726.62,185.13C1733.68,178.074 1738.57,174.33 1745.77,174.33C1754.99,174.33 1759.02,179.946 1759.02,193.05L1759.02,235.818L1770.83,235.818L1770.83,191.466C1770.83,173.61 1764.2,164.106 1749.52,164.106C1739.87,164.106 1732.67,169.29 1726.04,175.914L1725.61,175.914L1724.6,165.834L1714.81,165.834L1714.81,235.818Z" style="fill:black;fill-rule:nonzero;"/>
            <path d="M1819.21,217.674C1819.21,230.202 1828,237.546 1839.8,237.546C1848.44,237.546 1856.22,232.938 1862.99,227.466L1863.28,227.466L1864.28,235.818L1874.08,235.818L1874.08,192.906C1874.08,175.482 1866.88,164.106 1849.74,164.106C1838.51,164.106 1828.72,169.002 1822.24,173.178L1826.99,181.386C1832.46,177.642 1839.66,173.898 1847.87,173.898C1859.24,173.898 1862.27,182.538 1862.27,191.466C1832.46,194.778 1819.21,202.41 1819.21,217.674ZM1830.88,216.81C1830.88,207.882 1838.8,202.122 1862.27,199.242L1862.27,218.682C1855.5,224.73 1849.88,228.042 1843.12,228.042C1836.2,228.042 1830.88,224.73 1830.88,216.81Z" style="fill:black;fill-rule:nonzero;"/>
            <path d="M1888.62,227.898C1895.24,233.37 1904.75,237.546 1914.68,237.546C1931.24,237.546 1940.32,228.042 1940.32,216.666C1940.32,203.418 1929.08,199.242 1919,195.498C1911.08,192.474 1903.45,189.882 1903.45,183.402C1903.45,178.074 1907.48,173.322 1916.27,173.322C1922.46,173.322 1927.5,175.914 1932.25,179.514L1937.87,172.026C1932.54,167.706 1924.91,164.106 1916.12,164.106C1901,164.106 1892.08,172.746 1892.08,183.978C1892.08,195.786 1903.02,200.538 1912.96,204.138C1920.59,207.018 1928.94,210.186 1928.94,217.386C1928.94,223.434 1924.33,228.33 1915.12,228.33C1906.76,228.33 1900.57,224.874 1894.52,219.978L1888.62,227.898Z" style="fill:black;fill-rule:nonzero;"/>
            <path d="M1997.34,229.482C2003.82,234.522 2010.3,237.546 2016.78,237.546C2032.76,237.546 2047.02,223.578 2047.02,199.818C2047.02,178.074 2037.37,164.106 2019.37,164.106C2011.16,164.106 2003.39,168.57 1997.05,173.898L1996.62,173.898L1995.61,165.834L1985.82,165.834L1985.82,265.338L1997.63,265.338L1997.63,241.722L1997.34,229.482ZM1997.63,220.266L1997.63,183.546C2004.54,177.354 2010.44,174.042 2016.35,174.042C2029.6,174.042 2034.78,184.41 2034.78,199.818C2034.78,217.098 2026.28,227.61 2014.76,227.61C2010.16,227.61 2003.96,225.594 1997.63,220.266Z" style="fill:black;fill-rule:nonzero;"/>
            <path d="M2060.56,200.97C2060.56,224.154 2075.82,237.546 2092.96,237.546C2110.09,237.546 2125.36,224.154 2125.36,200.97C2125.36,177.498 2110.09,164.106 2092.96,164.106C2075.82,164.106 2060.56,177.498 2060.56,200.97ZM2072.8,200.97C2072.8,184.842 2081,173.898 2092.96,173.898C2105.05,173.898 2113.12,184.842 2113.12,200.97C2113.12,216.954 2105.05,227.754 2092.96,227.754C2081,227.754 2072.8,216.954 2072.8,200.97Z" style="fill:black;fill-rule:nonzero;"/>
            <path d="M2136.01,227.898C2142.64,233.37 2152.14,237.546 2162.08,237.546C2178.64,237.546 2187.71,228.042 2187.71,216.666C2187.71,203.418 2176.48,199.242 2166.4,195.498C2158.48,192.474 2150.84,189.882 2150.84,183.402C2150.84,178.074 2154.88,173.322 2163.66,173.322C2169.85,173.322 2174.89,175.914 2179.64,179.514L2185.26,172.026C2179.93,167.706 2172.3,164.106 2163.52,164.106C2148.4,164.106 2139.47,172.746 2139.47,183.978C2139.47,195.786 2150.41,200.538 2160.35,204.138C2167.98,207.018 2176.33,210.186 2176.33,217.386C2176.33,223.434 2171.72,228.33 2162.51,228.33C2154.16,228.33 2147.96,224.874 2141.92,219.978L2136.01,227.898Z" style="fill:black;fill-rule:nonzero;"/>
            <path d="M2196.35,227.898C2202.97,233.37 2212.48,237.546 2222.41,237.546C2238.97,237.546 2248.04,228.042 2248.04,216.666C2248.04,203.418 2236.81,199.242 2226.73,195.498C2218.81,192.474 2211.18,189.882 2211.18,183.402C2211.18,178.074 2215.21,173.322 2224,173.322C2230.19,173.322 2235.23,175.914 2239.98,179.514L2245.6,172.026C2240.27,167.706 2232.64,164.106 2223.85,164.106C2208.73,164.106 2199.8,172.746 2199.8,183.978C2199.8,195.786 2210.75,200.538 2220.68,204.138C2228.32,207.018 2236.67,210.186 2236.67,217.386C2236.67,223.434 2232.06,228.33 2222.84,228.33C2214.49,228.33 2208.3,224.874 2202.25,219.978L2196.35,227.898Z" style="fill:black;fill-rule:nonzero;"/>
            <path d="M2270.51,151.434C2275.12,151.434 2278.72,148.266 2278.72,143.802C2278.72,139.194 2275.12,136.17 2270.51,136.17C2265.9,136.17 2262.3,139.194 2262.3,143.802C2262.3,148.266 2265.9,151.434 2270.51,151.434ZM2264.46,235.818L2276.27,235.818L2276.27,165.834L2264.46,165.834L2264.46,235.818Z" style="fill:black;fill-rule:nonzero;"/>
            <path d="M2299.88,235.818L2309.39,235.818L2310.4,228.906L2310.83,228.906C2317.02,234.378 2324.36,237.546 2330.84,237.546C2346.83,237.546 2361.08,223.578 2361.08,199.674C2361.08,178.074 2351.44,164.106 2333.29,164.106C2325.52,164.106 2317.74,168.282 2311.4,173.898L2311.69,161.226L2311.69,133.29L2299.88,133.29L2299.88,235.818ZM2311.69,220.266L2311.69,183.546C2318.32,177.354 2324.51,174.042 2330.41,174.042C2343.66,174.042 2348.84,184.41 2348.84,199.818C2348.84,217.098 2340.35,227.61 2328.83,227.61C2324.22,227.61 2317.88,225.594 2311.69,220.266Z" style="fill:black;fill-rule:nonzero;"/>
            <path d="M2379.8,221.706C2379.8,231.93 2383.4,237.546 2392.33,237.546C2395.5,237.546 2397.52,237.114 2399.1,236.394L2397.52,227.466C2396.22,227.754 2395.64,227.754 2394.92,227.754C2393.2,227.754 2391.61,226.314 2391.61,222.57L2391.61,133.29L2379.8,133.29L2379.8,221.706Z" style="fill:black;fill-rule:nonzero;"/>
            <path d="M2411.34,200.97C2411.34,223.866 2426.17,237.546 2444.89,237.546C2454.4,237.546 2461.88,234.234 2467.93,230.346L2463.76,222.57C2458.57,225.882 2452.96,228.042 2446.33,228.042C2432.94,228.042 2423.87,218.538 2423,203.418L2470.24,203.418C2470.52,201.69 2470.67,199.386 2470.67,196.938C2470.67,176.922 2460.59,164.106 2442.73,164.106C2426.75,164.106 2411.34,178.074 2411.34,200.97ZM2422.86,195.642C2424.3,181.53 2433.23,173.466 2443.02,173.466C2453.96,173.466 2460.3,181.386 2460.3,195.642L2422.86,195.642Z" style="fill:black;fill-rule:nonzero;"/>
        </g>
    </g>
</svg>
