<?xml version="1.0" standalone="no"?>
<!DOCTYPE svg PUBLIC "-//W3C//DTD SVG 1.1//EN" "http://www.w3.org/Graphics/SVG/1.1/DTD/svg11.dtd">
<svg width="100%" height="100%" viewBox="0 0 1024 1024" version="1.1" xmlns="http://www.w3.org/2000/svg" xmlns:xlink="http://www.w3.org/1999/xlink" xml:space="preserve" style="fill-rule:evenodd;clip-rule:evenodd;stroke-linejoin:round;stroke-miterlimit:1.41421;">
    <g transform="matrix(0.623309,3.35318e-17,4.58496e-17,0.665084,105.159,97.9206)">
        <rect x="-168.711" y="-147.23" width="1642.84" height="1539.66" style="fill:rgb(102,51,153);"/>
    </g>
    <g id="Eye">
        <path d="M573.403,628.39C593.302,608.662 617.694,591.469 640.302,591.525C662.91,591.58 693.197,611.345 709.051,628.723C693.748,646.547 665.075,664.765 642.467,664.71C619.859,664.654 593.473,649.801 573.403,628.39ZM641.24,603.037C655.139,603.037 666.423,614.321 666.423,628.22C666.423,642.119 655.139,653.403 641.24,653.403C627.342,653.403 616.058,642.119 616.058,628.22C616.058,614.321 627.342,603.037 641.24,603.037Z" style="fill:white;"/>
        <g transform="matrix(1,0,0,1,-4.3744,-2.38707)">
            <circle cx="645.529" cy="629.993" r="11.993" style="fill:white;"/>
        </g>
    </g>
    <g transform="matrix(1,0,0,1,-230.385,159.372)">
        <path d="M456.223,316.152L433.687,316.152L357.589,107.176L383.345,107.176L444.809,285.713L445.394,285.713L506.565,107.176L532.614,107.176L456.223,316.152Z" style="fill:white;fill-rule:nonzero;"/>
        <path d="M626.857,316.152L606.37,316.152L548.711,107.176L575.638,107.176L616.906,276.054L617.492,276.054L661.101,107.176L685.687,107.176L729.296,276.054L729.882,276.054L771.15,107.176L798.077,107.176L740.418,316.152L719.638,316.152L673.687,146.103L672.809,146.103L626.857,316.152Z" style="fill:white;fill-rule:nonzero;"/>
        <path d="M812.711,316.152L789.296,316.152L864.223,107.176L886.76,107.176L961.687,316.152L937.101,316.152L914.857,251.176L834.955,251.176L812.711,316.152ZM875.345,135.274L874.76,135.274L841.394,232.152L908.418,232.152L875.345,135.274Z" style="fill:white;fill-rule:nonzero;"/>
        <path d="M976.321,260.835L999.443,260.835C999.833,266.103 1001.3,271.03 1003.83,275.615C1006.37,280.201 1009.78,284.298 1014.08,287.908C1018.37,291.518 1023.88,294.396 1030.61,296.542C1037.35,298.688 1044.81,299.761 1053,299.761C1068.22,299.761 1080.42,296.249 1089.59,289.225C1098.76,282.201 1103.35,272.737 1103.35,260.835C1103.35,251.469 1100.42,244.005 1094.57,238.444C1088.71,232.883 1079.54,228.444 1067.05,225.127L1030.76,215.469C1024.32,213.713 1018.37,211.42 1012.91,208.591C1007.44,205.761 1002.37,202.249 997.687,198.054C993.004,193.859 989.345,188.64 986.711,182.396C984.077,176.152 982.76,169.127 982.76,161.322C982.76,152.152 984.711,143.761 988.614,136.152C992.516,128.542 997.784,122.298 1004.42,117.42C1011.05,112.542 1018.57,108.786 1026.95,106.152C1035.35,103.518 1044.22,102.201 1053.59,102.201C1060.61,102.201 1067.49,102.932 1074.22,104.396C1080.95,105.859 1087.35,108.152 1093.39,111.274C1099.44,114.396 1104.71,118.201 1109.2,122.688C1113.69,127.176 1117.3,132.64 1120.03,139.079C1122.76,145.518 1124.22,152.64 1124.42,160.444L1101.59,160.444C1100.61,149.518 1095.98,140.542 1087.69,133.518C1079.39,126.493 1067.83,122.981 1053,122.981C1038.95,122.981 1027.59,126.249 1018.91,132.786C1010.22,139.322 1005.88,148.347 1005.88,159.859C1005.88,176.64 1016.22,187.761 1036.91,193.225L1072.32,202.883C1081.1,205.225 1088.61,207.859 1094.86,210.786C1101.1,213.713 1106.71,217.371 1111.69,221.761C1116.66,226.152 1120.42,231.469 1122.95,237.713C1125.49,243.957 1126.76,251.079 1126.76,259.079C1126.76,278.591 1119.54,293.713 1105.1,304.444C1090.66,315.176 1072.32,320.542 1050.08,320.542C1037.2,320.542 1025.83,318.688 1015.98,314.981C1006.13,311.274 998.467,306.396 993.004,300.347C987.54,294.298 983.443,287.957 980.711,281.322C977.979,274.688 976.516,267.859 976.321,260.835Z" style="fill:white;fill-rule:nonzero;"/>
    </g>
    <g transform="matrix(0.820289,0,0,0.820289,-467.133,65.2062)">
        <path d="M696.011,850.532L719.133,850.532C719.524,855.8 720.987,860.727 723.524,865.312C726.06,869.897 729.475,873.995 733.768,877.605C738.06,881.214 743.572,884.092 750.304,886.239C757.036,888.385 764.499,889.458 772.694,889.458C787.914,889.458 800.109,885.946 809.28,878.922C818.451,871.897 823.036,862.434 823.036,850.532C823.036,841.166 820.109,833.702 814.255,828.141C808.402,822.58 799.231,818.141 786.743,814.824L750.451,805.166C744.011,803.41 738.06,801.117 732.597,798.288C727.133,795.458 722.06,791.946 717.377,787.751C712.694,783.556 709.036,778.336 706.402,772.092C703.768,765.849 702.451,758.824 702.451,751.019C702.451,741.849 704.402,733.458 708.304,725.849C712.207,718.239 717.475,711.995 724.109,707.117C730.743,702.239 738.255,698.483 746.646,695.849C755.036,693.214 763.914,691.897 773.28,691.897C780.304,691.897 787.182,692.629 793.914,694.092C800.646,695.556 807.036,697.849 813.085,700.971C819.133,704.092 824.402,707.897 828.89,712.385C833.377,716.873 836.987,722.336 839.719,728.775C842.451,735.214 843.914,742.336 844.109,750.141L821.28,750.141C820.304,739.214 815.67,730.239 807.377,723.214C799.085,716.19 787.524,712.678 772.694,712.678C758.646,712.678 747.28,715.946 738.597,722.483C729.914,729.019 725.572,738.044 725.572,749.556C725.572,766.336 735.914,777.458 756.597,782.922L792.011,792.58C800.792,794.922 808.304,797.556 814.548,800.483C820.792,803.41 826.402,807.068 831.377,811.458C836.353,815.849 840.109,821.166 842.646,827.41C845.182,833.653 846.451,840.775 846.451,848.775C846.451,868.288 839.231,883.41 824.792,894.141C810.353,904.873 792.011,910.239 769.768,910.239C756.89,910.239 745.524,908.385 735.67,904.678C725.816,900.971 718.158,896.092 712.694,890.044C707.231,883.995 703.133,877.653 700.402,871.019C697.67,864.385 696.207,857.556 696.011,850.532Z" style="fill:white;fill-rule:nonzero;"/>
        <path d="M899.133,745.458L899.133,705.068L921.67,705.068L921.67,745.458L954.743,745.458L954.743,764.483L921.67,764.483L921.67,863.117C921.67,872.873 923.572,879.458 927.377,882.873C931.182,886.288 938.255,887.995 948.597,887.995C952.109,887.995 954.646,887.897 956.207,887.702L956.207,906.141C952.694,906.922 948.402,907.312 943.329,907.312C934.158,907.312 926.646,906.434 920.792,904.678C914.938,902.922 910.451,900.044 907.329,896.044C904.207,892.044 902.06,887.41 900.89,882.141C899.719,876.873 899.133,870.141 899.133,861.946L899.133,764.483L876.597,764.483L876.597,745.458L899.133,745.458Z" style="fill:white;fill-rule:nonzero;"/>
        <path d="M1116.89,745.458L1116.89,905.849L1094.35,905.849L1094.35,883.897L1093.48,883.897C1090.35,891.117 1084.79,897.019 1076.79,901.605C1068.79,906.19 1058.65,908.483 1046.35,908.483C1029.38,908.483 1015.67,903.702 1005.23,894.141C994.792,884.58 989.572,870.824 989.572,852.873L989.572,745.458L1012.11,745.458L1012.11,846.434C1012.11,856.19 1013.91,864.239 1017.52,870.58C1021.13,876.922 1025.87,881.361 1031.72,883.897C1037.57,886.434 1044.4,887.702 1052.21,887.702C1064.89,887.702 1075.09,883.849 1082.79,876.141C1090.5,868.434 1094.35,858.044 1094.35,844.971L1094.35,745.458L1116.89,745.458Z" style="fill:white;fill-rule:nonzero;"/>
        <path d="M1220.5,742.824C1232.99,742.824 1243.28,745.263 1251.38,750.141C1259.48,755.019 1264.89,761.068 1267.62,768.288L1268.5,768.288L1268.02,718.832L1291.86,738.103L1290.74,905.849L1269.67,905.849L1269.67,880.971L1269.09,880.971C1267.13,887.995 1261.77,894.288 1252.99,899.849C1244.21,905.41 1233.38,908.19 1220.5,908.19C1200.4,908.19 1184.84,901.653 1173.82,888.58C1162.79,875.507 1157.28,858.141 1157.28,836.483L1157.28,814.532C1157.28,793.068 1162.79,775.751 1173.82,762.58C1184.84,749.41 1200.4,742.824 1220.5,742.824ZM1223.43,762.727C1209.18,762.727 1198.35,767.8 1190.94,777.946C1183.52,788.092 1179.82,801.751 1179.82,818.922L1179.82,832.092C1179.82,849.458 1183.57,863.214 1191.09,873.361C1198.6,883.507 1209.57,888.58 1224.01,888.58C1238.06,888.58 1248.99,883.605 1256.79,873.653C1264.6,863.702 1268.5,850.044 1268.5,832.678L1268.5,817.751C1268.5,800.971 1264.5,787.605 1256.5,777.653C1248.5,767.702 1237.48,762.727 1223.43,762.727Z" style="fill:white;fill-rule:nonzero;"/>
        <rect x="1344.01" y="745.458" width="22.537" height="160.39" style="fill:white;fill-rule:nonzero;"/>
        <path d="M1478.94,742.824C1501.18,742.824 1518.01,749.605 1529.43,763.166C1540.84,776.727 1546.55,795.117 1546.55,818.336L1546.55,832.678C1546.55,855.897 1540.84,874.336 1529.43,887.995C1518.01,901.653 1501.18,908.483 1478.94,908.483C1456.69,908.483 1439.82,901.702 1428.3,888.141C1416.79,874.58 1411.04,856.092 1411.04,832.678L1411.04,818.336C1411.04,795.702 1416.79,777.458 1428.3,763.605C1439.82,749.751 1456.69,742.824 1478.94,742.824ZM1478.94,762.727C1463.33,762.727 1451.82,768.092 1444.4,778.824C1436.99,789.556 1433.28,803.605 1433.28,820.971L1433.28,830.336C1433.28,847.897 1436.94,861.946 1444.26,872.483C1451.57,883.019 1463.13,888.288 1478.94,888.288C1494.55,888.288 1505.96,883.019 1513.18,872.483C1520.4,861.946 1524.01,847.897 1524.01,830.336L1524.01,820.971C1524.01,803.605 1520.4,789.556 1513.18,778.824C1505.96,768.092 1494.55,762.727 1478.94,762.727Z" style="fill:white;fill-rule:nonzero;"/>
        <path d="M1579.33,790.239C1579.33,774.824 1584.89,763.068 1596.01,754.971C1607.13,746.873 1620.89,742.824 1637.28,742.824C1655.43,742.824 1669.28,747.361 1678.84,756.434C1688.4,765.507 1693.18,776.775 1693.18,790.239L1672.11,790.239C1671.91,786.727 1671.18,783.41 1669.91,780.288C1668.65,777.166 1666.69,774.141 1664.06,771.214C1661.43,768.288 1657.72,765.897 1652.94,764.044C1648.16,762.19 1642.65,761.263 1636.4,761.263C1626.06,761.263 1617.67,763.653 1611.23,768.434C1604.79,773.214 1601.57,779.702 1601.57,787.897C1601.57,791.605 1602.35,794.873 1603.91,797.702C1605.48,800.532 1607.23,802.775 1609.18,804.434C1611.13,806.092 1614.11,807.653 1618.11,809.117C1622.11,810.58 1625.38,811.605 1627.91,812.19C1630.45,812.775 1634.26,813.556 1639.33,814.532C1640.3,814.727 1640.99,814.824 1641.38,814.824C1648.21,816.19 1654.01,817.458 1658.79,818.629C1663.57,819.8 1668.6,821.556 1673.87,823.897C1679.13,826.239 1683.33,828.873 1686.45,831.8C1689.57,834.727 1692.16,838.532 1694.21,843.214C1696.26,847.897 1697.28,853.263 1697.28,859.312C1697.28,869.653 1694.6,878.58 1689.23,886.092C1683.87,893.605 1676.55,899.214 1667.28,902.922C1658.01,906.629 1647.33,908.483 1635.23,908.483C1617.48,908.483 1603.23,904.385 1592.5,896.19C1581.77,887.995 1576.4,876.971 1576.4,863.117L1598.35,863.117C1599.52,871.117 1603.28,877.556 1609.62,882.434C1615.96,887.312 1624.79,889.751 1636.11,889.751C1648.79,889.751 1658.45,887.214 1665.09,882.141C1671.72,877.068 1675.04,870.336 1675.04,861.946C1675.04,858.824 1674.6,856.044 1673.72,853.605C1672.84,851.166 1671.33,849.068 1669.18,847.312C1667.04,845.556 1664.99,844.044 1663.04,842.775C1661.09,841.507 1658.21,840.336 1654.4,839.263C1650.6,838.19 1647.43,837.361 1644.89,836.775C1642.35,836.19 1638.65,835.41 1633.77,834.434C1627.72,833.068 1622.84,831.897 1619.13,830.922C1615.43,829.946 1611.18,828.678 1606.4,827.117C1601.62,825.556 1597.82,823.751 1594.99,821.702C1592.16,819.653 1589.43,817.166 1586.79,814.239C1584.16,811.312 1582.26,807.849 1581.09,803.849C1579.91,799.849 1579.33,795.312 1579.33,790.239Z" style="fill:white;fill-rule:nonzero;"/>
    </g>
</svg>
